<svg xmlns="http://www.w3.org/2000/svg" width="40" height="40" viewBox="0 0 40 40" fill="none"><circle cx="20" cy="20" r="12.8921" transform="rotate(-135 20 20)" fill="white" stroke="#7B7B7B" stroke-width="2.5"></circle><path fill-rule="evenodd" clip-rule="evenodd" d="M19.7831 13.9765C20.0758 13.9765 20.313 14.2141 20.313 14.5072V19.284H25.0822C25.3749 19.284 25.6121 19.5216 25.6121 19.8147C25.6121 20.1079 25.3749 20.3455 25.0822 20.3455H20.313V25.1222C20.313 25.4154 20.0758 25.653 19.7831 25.653C19.4905 25.653 19.2532 25.4154 19.2532 25.1222V20.3455H14.484C14.1914 20.3455 13.9541 20.1079 13.9541 19.8147C13.9541 19.5216 14.1914 19.284 14.484 19.284H19.2532V14.5072C19.2532 14.2141 19.4905 13.9765 19.7831 13.9765Z" fill="#7B7B7B" stroke="#7B7B7B" stroke-linecap="round" stroke-linejoin="round"></path></svg>