<svg width="137" height="32" viewBox="0 0 137 32" fill="none" xmlns="http://www.w3.org/2000/svg">
<g clip-path="url(#clip0_2646_1007)">
<path d="M0.756592 2.02246H28.7117L18.5599 12.0592H0.756592V2.02246Z" fill="url(#paint0_linear_2646_1007)"/>
<path d="M28.7118 2.02246L28.7118 29.9776L18.675 29.9776L18.675 11.9352L28.7118 2.02246Z" fill="url(#paint1_linear_2646_1007)"/>
<path d="M0.756592 2.02246L28.7117 29.9775H0.756592V2.02246Z" fill="#1E8C51"/>
</g>
<path d="M45.232 8.83623V10.053H41.1622V23.5H39.6937V10.053H35.603V8.83623H45.232ZM55.3546 23.5L51.7254 17.3744H49.0192V23.5H47.5507V8.83623H51.9561C53.5924 8.83623 54.8302 9.22783 55.6693 10.011C56.5224 10.7942 56.949 11.8221 56.949 13.0948C56.949 14.1577 56.6413 15.0668 56.0259 15.822C55.4245 16.5632 54.5295 17.0457 53.3407 17.2695L57.1168 23.5H55.3546ZM49.0192 16.1786H51.9771C53.1239 16.1786 53.984 15.8989 54.5574 15.3395C55.1448 14.7801 55.4385 14.0318 55.4385 13.0948C55.4385 12.1298 55.1588 11.3886 54.5994 10.8711C54.04 10.3397 53.1589 10.0739 51.9561 10.0739H49.0192V16.1786ZM68.3593 20.0176H61.6882L60.4086 23.5H58.8562L64.2056 9.02504H65.8629L71.1914 23.5H69.639L68.3593 20.0176ZM67.9188 18.8009L65.0238 10.8711L62.1288 18.8009H67.9188ZM77.8906 8.83623C79.5129 8.83623 80.9045 9.12993 82.0653 9.71732C83.2261 10.3047 84.1141 11.1508 84.7295 12.2557C85.3449 13.3605 85.6525 14.6752 85.6525 16.1996C85.6525 17.71 85.3449 19.0177 84.7295 20.1225C84.1141 21.2134 83.2261 22.0525 82.0653 22.6399C80.9045 23.2133 79.5129 23.5 77.8906 23.5H73.5481V8.83623H77.8906ZM77.8906 22.2833C79.9325 22.2833 81.4849 21.7518 82.5478 20.6889C83.6247 19.612 84.1631 18.1156 84.1631 16.1996C84.1631 14.2696 83.6247 12.7662 82.5478 11.6893C81.4849 10.5984 79.9325 10.053 77.8906 10.053H75.0166V22.2833H77.8906ZM89.8284 10.032V15.5073H95.3876V16.724H89.8284V22.2833H96.0169V23.5H88.3599V8.81526H96.0169V10.032H89.8284ZM107.218 8.85721V19.1365C107.218 20.5631 106.805 21.6749 105.98 22.4721C105.155 23.2553 104.05 23.6468 102.666 23.6468C101.267 23.6468 100.134 23.2413 99.2671 22.4301C98.414 21.619 97.9874 20.4861 97.9874 19.0316H100.924C100.938 19.661 101.085 20.1505 101.365 20.5001C101.659 20.8498 102.078 21.0246 102.624 21.0246C103.155 21.0246 103.561 20.8567 103.84 20.5211C104.12 20.1854 104.26 19.7239 104.26 19.1365V8.85721H107.218ZM113.581 8.85721V23.5H110.644V8.85721H113.581ZM129.006 23.5H126.07L119.419 13.4514V23.5H116.482V8.83623H119.419L126.07 18.9058V8.83623H129.006V23.5ZM134.846 8.85721V23.5H131.909V8.85721H134.846Z" fill="white"/>
<defs>
<linearGradient id="paint0_linear_2646_1007" x1="-11.7332" y1="7.50624" x2="36.5176" y2="7.04083" gradientUnits="userSpaceOnUse">
<stop stop-color="#18944A"/>
<stop offset="1" stop-color="#86D3BB"/>
</linearGradient>
<linearGradient id="paint1_linear_2646_1007" x1="23.6935" y1="29.1387" x2="23.6935" y2="13.6515" gradientUnits="userSpaceOnUse">
<stop stop-color="#1E975D"/>
<stop offset="1" stop-color="#86D3BB"/>
</linearGradient>
<clipPath id="clip0_2646_1007">
<rect x="0.756592" y="2.02246" width="27.9552" height="27.9552" rx="3.28004" fill="white"/>
</clipPath>
</defs>
</svg>
