<svg width="337" height="51" viewBox="0 0 337 51" fill="none" xmlns="http://www.w3.org/2000/svg">
<path d="M33.3629 0.364276V4.48284H19.587V50H14.6163V4.48284H0.769449V0.364276H33.3629ZM67.6272 50L55.3426 29.2652H46.1823V50H41.2116V0.364276H56.1237C61.6624 0.364276 65.852 1.68979 68.6924 4.34082C71.5801 6.99184 73.0239 10.4713 73.0239 14.7792C73.0239 18.3771 71.9825 21.4541 69.8995 24.0105C67.8639 26.5195 64.8342 28.1527 60.8103 28.9101L73.592 50H67.6272ZM46.1823 25.2176H56.1947C60.0765 25.2176 62.9879 24.2708 64.9289 22.3773C66.9171 20.4837 67.9113 17.951 67.9113 14.7792C67.9113 11.5128 66.9645 9.00378 65.0709 7.25221C63.1773 5.4533 60.1949 4.55384 56.1237 4.55384H46.1823V25.2176ZM111.647 38.2124H89.066L84.7344 50H79.4797L97.5872 1.00336H103.197L121.233 50H115.979L111.647 38.2124ZM110.156 34.0938L100.357 7.25221L90.5572 34.0938H110.156ZM143.91 0.364276C149.401 0.364276 154.112 1.35841 158.041 3.34668C161.97 5.33495 164.976 8.19901 167.059 11.9388C169.142 15.6787 170.183 20.1286 170.183 25.2887C170.183 30.4013 169.142 34.8276 167.059 38.5675C164.976 42.26 161.97 45.1003 158.041 47.0886C154.112 49.0295 149.401 50 143.91 50H129.211V0.364276H143.91ZM143.91 45.8814C150.821 45.8814 156.076 44.0825 159.674 40.4847C163.319 36.8396 165.142 31.7742 165.142 25.2887C165.142 18.7558 163.319 13.6667 159.674 10.0216C156.076 6.32909 150.821 4.48284 143.91 4.48284H134.182V45.8814H143.91ZM184.318 4.41183V22.9453H203.136V27.0639H184.318V45.8814H205.266V50H179.348V0.293267H205.266V4.41183H184.318ZM243.18 0.435289V35.23C243.18 40.0587 241.784 43.8222 238.991 46.5205C236.198 49.1716 232.458 50.4971 227.771 50.4971C223.037 50.4971 219.203 49.1242 216.268 46.3785C213.38 43.6328 211.936 39.7983 211.936 34.875H221.877C221.925 37.0052 222.422 38.6621 223.369 39.8456C224.363 41.0291 225.783 41.6209 227.629 41.6209C229.428 41.6209 230.801 41.0528 231.748 39.9166C232.694 38.7805 233.168 37.2183 233.168 35.23V0.435289H243.18ZM264.718 0.435289V50H254.777V0.435289H264.718ZM316.933 50H306.992L284.482 15.9864V50H274.54V0.364276H284.482L306.992 34.4489V0.364276H316.933V50ZM336.699 0.435289V50H326.757V0.435289H336.699Z" fill="black"/>
</svg>
