<svg xmlns="http://www.w3.org/2000/svg" width="1052" height="556" viewBox="0 0 1052 556" fill="none"><g filter="url(#filter0_d_4273_9783)"><rect x="549.576" y="528.625" width="524.27" height="517.625" rx="40" transform="rotate(180 549.576 528.625)" fill="white"></rect></g><path opacity="0.6" d="M165.388 398.849H155.66L153.868 403.809H150.796L158.86 381.633H162.22L170.252 403.809H167.18L165.388 398.849ZM164.556 396.481L160.524 385.217L156.492 396.481H164.556ZM172.679 395.009C172.679 393.195 173.041 391.617 173.767 390.273C174.492 388.907 175.495 387.851 176.775 387.105C178.076 386.358 179.559 385.985 181.223 385.985C183.377 385.985 185.148 386.507 186.535 387.553C187.943 388.598 188.871 390.049 189.319 391.905H186.183C185.884 390.838 185.297 389.995 184.423 389.377C183.569 388.758 182.503 388.449 181.223 388.449C179.559 388.449 178.215 389.025 177.191 390.177C176.167 391.307 175.655 392.918 175.655 395.009C175.655 397.121 176.167 398.753 177.191 399.905C178.215 401.057 179.559 401.633 181.223 401.633C182.503 401.633 183.569 401.334 184.423 400.737C185.276 400.139 185.863 399.286 186.183 398.177H189.319C188.849 399.969 187.911 401.409 186.503 402.497C185.095 403.563 183.335 404.097 181.223 404.097C179.559 404.097 178.076 403.723 176.775 402.977C175.495 402.23 174.492 401.174 173.767 399.809C173.041 398.443 172.679 396.843 172.679 395.009ZM192.116 395.009C192.116 393.195 192.479 391.617 193.204 390.273C193.93 388.907 194.932 387.851 196.212 387.105C197.514 386.358 198.996 385.985 200.66 385.985C202.815 385.985 204.586 386.507 205.972 387.553C207.38 388.598 208.308 390.049 208.756 391.905H205.62C205.322 390.838 204.735 389.995 203.86 389.377C203.007 388.758 201.94 388.449 200.66 388.449C198.996 388.449 197.652 389.025 196.628 390.177C195.604 391.307 195.092 392.918 195.092 395.009C195.092 397.121 195.604 398.753 196.628 399.905C197.652 401.057 198.996 401.633 200.66 401.633C201.94 401.633 203.007 401.334 203.86 400.737C204.714 400.139 205.3 399.286 205.62 398.177H208.756C208.287 399.969 207.348 401.409 205.94 402.497C204.532 403.563 202.772 404.097 200.66 404.097C198.996 404.097 197.514 403.723 196.212 402.977C194.932 402.23 193.93 401.174 193.204 399.809C192.479 398.443 192.116 396.843 192.116 395.009ZM220.29 404.097C218.647 404.097 217.154 403.723 215.81 402.977C214.487 402.23 213.442 401.174 212.674 399.809C211.927 398.422 211.554 396.822 211.554 395.009C211.554 393.217 211.938 391.638 212.706 390.273C213.495 388.886 214.562 387.83 215.906 387.105C217.25 386.358 218.754 385.985 220.418 385.985C222.082 385.985 223.586 386.358 224.93 387.105C226.274 387.83 227.33 388.875 228.098 390.241C228.887 391.606 229.282 393.195 229.282 395.009C229.282 396.822 228.876 398.422 228.066 399.809C227.276 401.174 226.199 402.23 224.834 402.977C223.468 403.723 221.954 404.097 220.29 404.097ZM220.29 401.537C221.335 401.537 222.316 401.291 223.234 400.801C224.151 400.31 224.887 399.574 225.442 398.593C226.018 397.611 226.306 396.417 226.306 395.009C226.306 393.601 226.028 392.406 225.474 391.425C224.919 390.443 224.194 389.718 223.298 389.249C222.402 388.758 221.431 388.513 220.386 388.513C219.319 388.513 218.338 388.758 217.442 389.249C216.567 389.718 215.863 390.443 215.33 391.425C214.796 392.406 214.53 393.601 214.53 395.009C214.53 396.438 214.786 397.643 215.298 398.625C215.831 399.606 216.535 400.342 217.41 400.833C218.284 401.302 219.244 401.537 220.29 401.537ZM248.663 386.273V403.809H245.751V401.217C245.196 402.113 244.417 402.817 243.415 403.329C242.433 403.819 241.345 404.065 240.151 404.065C238.785 404.065 237.559 403.787 236.471 403.233C235.383 402.657 234.519 401.803 233.879 400.673C233.26 399.542 232.951 398.166 232.951 396.545V386.273H235.831V396.161C235.831 397.889 236.268 399.222 237.143 400.161C238.017 401.078 239.212 401.537 240.727 401.537C242.284 401.537 243.511 401.057 244.407 400.097C245.303 399.137 245.751 397.739 245.751 395.905V386.273H248.663ZM262.123 385.953C264.257 385.953 265.985 386.603 267.307 387.905C268.63 389.185 269.291 391.041 269.291 393.473V403.809H266.411V393.889C266.411 392.139 265.974 390.806 265.099 389.889C264.225 388.95 263.03 388.481 261.515 388.481C259.979 388.481 258.753 388.961 257.835 389.921C256.939 390.881 256.491 392.278 256.491 394.113V403.809H253.579V386.273H256.491V388.769C257.067 387.873 257.846 387.179 258.827 386.689C259.83 386.198 260.929 385.953 262.123 385.953ZM277.6 388.673V399.009C277.6 399.862 277.781 400.47 278.144 400.833C278.507 401.174 279.136 401.345 280.032 401.345H282.176V403.809H279.552C277.931 403.809 276.715 403.435 275.904 402.689C275.093 401.942 274.688 400.715 274.688 399.009V388.673H272.416V386.273H274.688V381.857H277.6V386.273H282.176V388.673H277.6ZM301.883 404.097C300.241 404.097 298.747 403.723 297.403 402.977C296.081 402.23 295.035 401.174 294.267 399.809C293.521 398.422 293.147 396.822 293.147 395.009C293.147 393.217 293.531 391.638 294.299 390.273C295.089 388.886 296.155 387.83 297.499 387.105C298.843 386.358 300.347 385.985 302.011 385.985C303.675 385.985 305.179 386.358 306.523 387.105C307.867 387.83 308.923 388.875 309.691 390.241C310.481 391.606 310.875 393.195 310.875 395.009C310.875 396.822 310.47 398.422 309.659 399.809C308.87 401.174 307.793 402.23 306.427 402.977C305.062 403.723 303.547 404.097 301.883 404.097ZM301.883 401.537C302.929 401.537 303.91 401.291 304.827 400.801C305.745 400.31 306.481 399.574 307.035 398.593C307.611 397.611 307.899 396.417 307.899 395.009C307.899 393.601 307.622 392.406 307.067 391.425C306.513 390.443 305.787 389.718 304.891 389.249C303.995 388.758 303.025 388.513 301.979 388.513C300.913 388.513 299.931 388.758 299.035 389.249C298.161 389.718 297.457 390.443 296.923 391.425C296.39 392.406 296.123 393.601 296.123 395.009C296.123 396.438 296.379 397.643 296.891 398.625C297.425 399.606 298.129 400.342 299.003 400.833C299.878 401.302 300.838 401.537 301.883 401.537ZM317.616 389.505C318.192 388.502 319.046 387.67 320.176 387.009C321.328 386.326 322.662 385.985 324.176 385.985C325.734 385.985 327.142 386.358 328.4 387.105C329.68 387.851 330.683 388.907 331.408 390.273C332.134 391.617 332.496 393.185 332.496 394.977C332.496 396.747 332.134 398.326 331.408 399.713C330.683 401.099 329.68 402.177 328.4 402.945C327.142 403.713 325.734 404.097 324.176 404.097C322.683 404.097 321.36 403.766 320.208 403.105C319.078 402.422 318.214 401.579 317.616 400.577V412.129H314.704V386.273H317.616V389.505ZM329.52 394.977C329.52 393.654 329.254 392.502 328.72 391.521C328.187 390.539 327.462 389.793 326.544 389.281C325.648 388.769 324.656 388.513 323.568 388.513C322.502 388.513 321.51 388.779 320.592 389.313C319.696 389.825 318.971 390.582 318.416 391.585C317.883 392.566 317.616 393.707 317.616 395.009C317.616 396.331 317.883 397.494 318.416 398.497C318.971 399.478 319.696 400.235 320.592 400.769C321.51 401.281 322.502 401.537 323.568 401.537C324.656 401.537 325.648 401.281 326.544 400.769C327.462 400.235 328.187 399.478 328.72 398.497C329.254 397.494 329.52 396.321 329.52 394.977ZM352.329 394.369C352.329 394.923 352.297 395.51 352.233 396.129H338.217C338.324 397.857 338.911 399.211 339.977 400.193C341.065 401.153 342.377 401.633 343.913 401.633C345.172 401.633 346.217 401.345 347.049 400.769C347.903 400.171 348.5 399.382 348.841 398.401H351.977C351.508 400.086 350.569 401.462 349.161 402.529C347.753 403.574 346.004 404.097 343.913 404.097C342.249 404.097 340.756 403.723 339.433 402.977C338.132 402.23 337.108 401.174 336.361 399.809C335.615 398.422 335.241 396.822 335.241 395.009C335.241 393.195 335.604 391.606 336.329 390.241C337.055 388.875 338.068 387.83 339.369 387.105C340.692 386.358 342.207 385.985 343.913 385.985C345.577 385.985 347.049 386.347 348.329 387.073C349.609 387.798 350.591 388.801 351.273 390.081C351.977 391.339 352.329 392.769 352.329 394.369ZM349.321 393.761C349.321 392.651 349.076 391.702 348.585 390.913C348.095 390.102 347.423 389.494 346.569 389.089C345.737 388.662 344.809 388.449 343.785 388.449C342.313 388.449 341.055 388.918 340.009 389.857C338.985 390.795 338.399 392.097 338.249 393.761H349.321ZM364.717 385.953C366.85 385.953 368.578 386.603 369.901 387.905C371.224 389.185 371.885 391.041 371.885 393.473V403.809H369.005V393.889C369.005 392.139 368.568 390.806 367.693 389.889C366.818 388.95 365.624 388.481 364.109 388.481C362.573 388.481 361.346 388.961 360.429 389.921C359.533 390.881 359.085 392.278 359.085 394.113V403.809H356.173V386.273H359.085V388.769C359.661 387.873 360.44 387.179 361.421 386.689C362.424 386.198 363.522 385.953 364.717 385.953ZM378.146 383.425C377.591 383.425 377.122 383.233 376.738 382.849C376.354 382.465 376.162 381.995 376.162 381.441C376.162 380.886 376.354 380.417 376.738 380.033C377.122 379.649 377.591 379.457 378.146 379.457C378.679 379.457 379.127 379.649 379.49 380.033C379.874 380.417 380.066 380.886 380.066 381.441C380.066 381.995 379.874 382.465 379.49 382.849C379.127 383.233 378.679 383.425 378.146 383.425ZM379.554 386.273V403.809H376.642V386.273H379.554ZM393.061 385.953C395.194 385.953 396.922 386.603 398.245 387.905C399.567 389.185 400.229 391.041 400.229 393.473V403.809H397.349V393.889C397.349 392.139 396.911 390.806 396.037 389.889C395.162 388.95 393.967 388.481 392.453 388.481C390.917 388.481 389.69 388.961 388.773 389.921C387.877 390.881 387.429 392.278 387.429 394.113V403.809H384.517V386.273H387.429V388.769C388.005 387.873 388.783 387.179 389.765 386.689C390.767 386.198 391.866 385.953 393.061 385.953ZM412.217 385.985C413.732 385.985 415.055 386.315 416.185 386.977C417.337 387.638 418.191 388.47 418.745 389.473V386.273H421.689V404.193C421.689 405.793 421.348 407.211 420.665 408.449C419.983 409.707 419.001 410.689 417.721 411.393C416.463 412.097 414.991 412.449 413.305 412.449C411.001 412.449 409.081 411.905 407.545 410.817C406.009 409.729 405.103 408.246 404.825 406.369H407.705C408.025 407.435 408.687 408.289 409.689 408.929C410.692 409.59 411.897 409.921 413.305 409.921C414.905 409.921 416.207 409.419 417.209 408.417C418.233 407.414 418.745 406.006 418.745 404.193V400.513C418.169 401.537 417.316 402.39 416.185 403.073C415.055 403.755 413.732 404.097 412.217 404.097C410.66 404.097 409.241 403.713 407.961 402.945C406.703 402.177 405.711 401.099 404.985 399.713C404.26 398.326 403.897 396.747 403.897 394.977C403.897 393.185 404.26 391.617 404.985 390.273C405.711 388.907 406.703 387.851 407.961 387.105C409.241 386.358 410.66 385.985 412.217 385.985ZM418.745 395.009C418.745 393.686 418.479 392.534 417.945 391.553C417.412 390.571 416.687 389.825 415.769 389.313C414.873 388.779 413.881 388.513 412.793 388.513C411.705 388.513 410.713 388.769 409.817 389.281C408.921 389.793 408.207 390.539 407.673 391.521C407.14 392.502 406.873 393.654 406.873 394.977C406.873 396.321 407.14 397.494 407.673 398.497C408.207 399.478 408.921 400.235 409.817 400.769C410.713 401.281 411.705 401.537 412.793 401.537C413.881 401.537 414.873 401.281 415.769 400.769C416.687 400.235 417.412 399.478 417.945 398.497C418.479 397.494 418.745 396.331 418.745 395.009ZM230.851 443.009C230.851 441.195 231.213 439.617 231.939 438.273C232.664 436.907 233.667 435.851 234.947 435.105C236.248 434.358 237.731 433.985 239.395 433.985C241.549 433.985 243.32 434.507 244.707 435.553C246.115 436.598 247.043 438.049 247.491 439.905H244.355C244.056 438.838 243.469 437.995 242.595 437.377C241.741 436.758 240.675 436.449 239.395 436.449C237.731 436.449 236.387 437.025 235.363 438.177C234.339 439.307 233.827 440.918 233.827 443.009C233.827 445.121 234.339 446.753 235.363 447.905C236.387 449.057 237.731 449.633 239.395 449.633C240.675 449.633 241.741 449.334 242.595 448.737C243.448 448.139 244.035 447.286 244.355 446.177H247.491C247.021 447.969 246.083 449.409 244.675 450.497C243.267 451.563 241.507 452.097 239.395 452.097C237.731 452.097 236.248 451.723 234.947 450.977C233.667 450.23 232.664 449.174 231.939 447.809C231.213 446.443 230.851 444.843 230.851 443.009ZM260.08 433.953C261.403 433.953 262.597 434.241 263.664 434.817C264.731 435.371 265.563 436.214 266.16 437.345C266.779 438.475 267.088 439.851 267.088 441.473V451.809H264.208V441.889C264.208 440.139 263.771 438.806 262.896 437.889C262.021 436.95 260.827 436.481 259.312 436.481C257.776 436.481 256.549 436.961 255.632 437.921C254.736 438.881 254.288 440.278 254.288 442.113V451.809H251.376V428.129H254.288V436.769C254.864 435.873 255.653 435.179 256.656 434.689C257.68 434.198 258.821 433.953 260.08 433.953ZM270.757 442.977C270.757 441.185 271.12 439.617 271.845 438.273C272.57 436.907 273.562 435.851 274.821 435.105C276.101 434.358 277.52 433.985 279.077 433.985C280.613 433.985 281.946 434.315 283.077 434.977C284.208 435.638 285.05 436.47 285.605 437.473V434.273H288.549V451.809H285.605V448.545C285.029 449.569 284.165 450.422 283.013 451.105C281.882 451.766 280.56 452.097 279.045 452.097C277.488 452.097 276.08 451.713 274.821 450.945C273.562 450.177 272.57 449.099 271.845 447.713C271.12 446.326 270.757 444.747 270.757 442.977ZM285.605 443.009C285.605 441.686 285.338 440.534 284.805 439.553C284.272 438.571 283.546 437.825 282.629 437.313C281.733 436.779 280.741 436.513 279.653 436.513C278.565 436.513 277.573 436.769 276.677 437.281C275.781 437.793 275.066 438.539 274.533 439.521C274 440.502 273.733 441.654 273.733 442.977C273.733 444.321 274 445.494 274.533 446.497C275.066 447.478 275.781 448.235 276.677 448.769C277.573 449.281 278.565 449.537 279.653 449.537C280.741 449.537 281.733 449.281 282.629 448.769C283.546 448.235 284.272 447.478 284.805 446.497C285.338 445.494 285.605 444.331 285.605 443.009ZM296.382 437.121C296.894 436.118 297.619 435.339 298.558 434.785C299.518 434.23 300.681 433.953 302.046 433.953V436.961H301.278C298.014 436.961 296.382 438.731 296.382 442.273V451.809H293.47V434.273H296.382V437.121ZM312.639 433.985C314.154 433.985 315.477 434.315 316.607 434.977C317.759 435.638 318.613 436.47 319.167 437.473V434.273H322.111V452.193C322.111 453.793 321.77 455.211 321.087 456.449C320.405 457.707 319.423 458.689 318.143 459.393C316.885 460.097 315.413 460.449 313.727 460.449C311.423 460.449 309.503 459.905 307.967 458.817C306.431 457.729 305.525 456.246 305.247 454.369H308.127C308.447 455.435 309.109 456.289 310.111 456.929C311.114 457.59 312.319 457.921 313.727 457.921C315.327 457.921 316.629 457.419 317.631 456.417C318.655 455.414 319.167 454.006 319.167 452.193V448.513C318.591 449.537 317.738 450.39 316.607 451.073C315.477 451.755 314.154 452.097 312.639 452.097C311.082 452.097 309.663 451.713 308.383 450.945C307.125 450.177 306.133 449.099 305.407 447.713C304.682 446.326 304.319 444.747 304.319 442.977C304.319 441.185 304.682 439.617 305.407 438.273C306.133 436.907 307.125 435.851 308.383 435.105C309.663 434.358 311.082 433.985 312.639 433.985ZM319.167 443.009C319.167 441.686 318.901 440.534 318.367 439.553C317.834 438.571 317.109 437.825 316.191 437.313C315.295 436.779 314.303 436.513 313.215 436.513C312.127 436.513 311.135 436.769 310.239 437.281C309.343 437.793 308.629 438.539 308.095 439.521C307.562 440.502 307.295 441.654 307.295 442.977C307.295 444.321 307.562 445.494 308.095 446.497C308.629 447.478 309.343 448.235 310.239 448.769C311.135 449.281 312.127 449.537 313.215 449.537C314.303 449.537 315.295 449.281 316.191 448.769C317.109 448.235 317.834 447.478 318.367 446.497C318.901 445.494 319.167 444.331 319.167 443.009ZM343.032 442.369C343.032 442.923 343 443.51 342.936 444.129H328.92C329.027 445.857 329.614 447.211 330.68 448.193C331.768 449.153 333.08 449.633 334.616 449.633C335.875 449.633 336.92 449.345 337.752 448.769C338.606 448.171 339.203 447.382 339.544 446.401H342.68C342.211 448.086 341.272 449.462 339.864 450.529C338.456 451.574 336.707 452.097 334.616 452.097C332.952 452.097 331.459 451.723 330.136 450.977C328.835 450.23 327.811 449.174 327.064 447.809C326.318 446.422 325.944 444.822 325.944 443.009C325.944 441.195 326.307 439.606 327.032 438.241C327.758 436.875 328.771 435.83 330.072 435.105C331.395 434.358 332.91 433.985 334.616 433.985C336.28 433.985 337.752 434.347 339.032 435.073C340.312 435.798 341.294 436.801 341.976 438.081C342.68 439.339 343.032 440.769 343.032 442.369ZM340.024 441.761C340.024 440.651 339.779 439.702 339.288 438.913C338.798 438.102 338.126 437.494 337.272 437.089C336.44 436.662 335.512 436.449 334.488 436.449C333.016 436.449 331.758 436.918 330.712 437.857C329.688 438.795 329.102 440.097 328.952 441.761H340.024Z" fill="#151515"></path><path d="M211.969 219.292C211.969 186.445 217.475 160.812 228.488 142.395C239.69 123.788 258.867 114.484 286.018 114.484C313.169 114.484 332.251 123.788 343.264 142.395C354.466 160.812 360.067 186.445 360.067 219.292C360.067 252.519 354.466 278.531 343.264 297.328C332.251 315.935 313.169 325.239 286.018 325.239C258.867 325.239 239.69 315.935 228.488 297.328C217.475 278.531 211.969 252.519 211.969 219.292ZM328.169 219.292C328.169 203.913 327.125 190.907 325.036 180.274C323.137 169.641 319.15 161.002 313.074 154.357C306.999 147.521 297.98 144.104 286.018 144.104C274.056 144.104 265.038 147.521 258.962 154.357C252.886 161.002 248.804 169.641 246.715 180.274C244.816 190.907 243.867 203.913 243.867 219.292C243.867 235.241 244.816 248.627 246.715 259.449C248.614 270.272 252.601 279.006 258.677 285.651C264.943 292.297 274.056 295.619 286.018 295.619C297.98 295.619 306.999 292.297 313.074 285.651C319.34 279.006 323.422 270.272 325.321 259.449C327.22 248.627 328.169 235.241 328.169 219.292Z" fill="#118B64"></path><path d="M171.737 194.915L145.12 165.74V157.405H158.973C162.469 157.405 165.487 156.206 168.028 153.808C170.567 151.413 172.1 148.444 172.627 144.901H141.162V136.566H171.44C170.319 134.135 168.654 132.137 166.445 130.572C164.234 129.011 161.743 128.23 158.973 128.23H141.162V119.895H188.657V128.23H175.794C176.717 129.411 177.542 130.696 178.267 132.085C178.993 133.475 179.554 134.968 179.95 136.566H188.657V144.901H180.642C180.114 150.806 177.806 155.754 173.716 159.747C169.626 163.743 164.712 165.74 158.973 165.74H156.103L182.72 194.915H171.737Z" fill="#118B64"></path><g filter="url(#filter1_d_4273_9783)"><rect x="1044.69" y="472.766" width="411.117" height="405.906" rx="31.3668" transform="rotate(180 1044.69 472.766)" fill="white"></rect></g><path d="M762.757 280.997C772.795 272.319 780.689 265.209 786.439 259.668C792.294 254.022 797.156 248.167 801.025 242.103C804.893 236.038 806.828 229.974 806.828 223.91C806.828 217.636 805.312 212.722 802.28 209.167C799.352 205.612 794.699 203.835 788.321 203.835C782.153 203.835 777.343 205.822 773.893 209.795C770.547 213.663 768.769 218.891 768.56 225.478H751.308C751.622 213.559 755.177 204.462 761.973 198.189C768.874 191.811 777.604 188.622 788.164 188.622C799.561 188.622 808.448 191.759 814.826 198.032C821.309 204.306 824.55 212.67 824.55 223.126C824.55 230.654 822.616 237.92 818.747 244.926C814.983 251.826 810.435 258.047 805.103 263.589C799.875 269.026 793.183 275.351 785.028 282.566L777.97 288.839H827.687V303.738H751.465V290.721L762.757 280.997ZM843.393 246.651C843.393 228.563 846.425 214.447 852.49 204.306C858.659 194.059 869.219 188.936 884.17 188.936C899.122 188.936 909.63 194.059 915.694 204.306C921.863 214.447 924.947 228.563 924.947 246.651C924.947 264.948 921.863 279.272 915.694 289.623C909.63 299.87 899.122 304.993 884.17 304.993C869.219 304.993 858.659 299.87 852.49 289.623C846.425 279.272 843.393 264.948 843.393 246.651ZM907.382 246.651C907.382 238.182 906.807 231.02 905.656 225.164C904.611 219.309 902.415 214.552 899.069 210.893C895.724 207.129 890.757 205.247 884.17 205.247C877.583 205.247 872.617 207.129 869.271 210.893C865.925 214.552 863.677 219.309 862.527 225.164C861.482 231.02 860.959 238.182 860.959 246.651C860.959 255.433 861.482 262.805 862.527 268.764C863.573 274.724 865.768 279.534 869.114 283.193C872.564 286.853 877.583 288.682 884.17 288.682C890.757 288.682 895.724 286.853 899.069 283.193C902.52 279.534 904.768 274.724 905.813 268.764C906.859 262.805 907.382 255.433 907.382 246.651Z" fill="#118B64"></path><path opacity="0.6" d="M745.242 380.347H735.514L733.722 385.307H730.65L738.714 363.131H742.074L750.106 385.307H747.034L745.242 380.347ZM744.41 377.979L740.378 366.715L736.346 377.979H744.41ZM756.532 361.627V385.307H753.62V361.627H756.532ZM764.407 361.627V385.307H761.495V361.627H764.407ZM784.11 385.595C782.766 385.595 781.56 385.371 780.494 384.923C779.427 384.453 778.584 383.813 777.966 383.003C777.347 382.171 777.006 381.221 776.942 380.155H779.95C780.035 381.029 780.44 381.744 781.166 382.299C781.912 382.853 782.883 383.131 784.078 383.131C785.187 383.131 786.062 382.885 786.702 382.395C787.342 381.904 787.662 381.285 787.662 380.539C787.662 379.771 787.32 379.205 786.638 378.843C785.955 378.459 784.899 378.085 783.47 377.723C782.168 377.381 781.102 377.04 780.27 376.699C779.459 376.336 778.755 375.813 778.158 375.131C777.582 374.427 777.294 373.509 777.294 372.379C777.294 371.483 777.56 370.661 778.094 369.915C778.627 369.168 779.384 368.581 780.366 368.155C781.347 367.707 782.467 367.483 783.726 367.483C785.667 367.483 787.235 367.973 788.43 368.955C789.624 369.936 790.264 371.28 790.35 372.987H787.438C787.374 372.069 787 371.333 786.318 370.779C785.656 370.224 784.76 369.947 783.63 369.947C782.584 369.947 781.752 370.171 781.134 370.619C780.515 371.067 780.206 371.653 780.206 372.379C780.206 372.955 780.387 373.435 780.75 373.819C781.134 374.181 781.603 374.48 782.158 374.715C782.734 374.928 783.523 375.173 784.526 375.451C785.784 375.792 786.808 376.133 787.598 376.475C788.387 376.795 789.059 377.285 789.614 377.947C790.19 378.608 790.488 379.472 790.51 380.539C790.51 381.499 790.243 382.363 789.71 383.131C789.176 383.899 788.419 384.507 787.438 384.955C786.478 385.381 785.368 385.595 784.11 385.595ZM810.62 375.867C810.62 376.421 810.588 377.008 810.524 377.627H796.508C796.615 379.355 797.202 380.709 798.268 381.691C799.356 382.651 800.668 383.131 802.204 383.131C803.463 383.131 804.508 382.843 805.34 382.267C806.194 381.669 806.791 380.88 807.132 379.899H810.268C809.799 381.584 808.86 382.96 807.452 384.027C806.044 385.072 804.295 385.595 802.204 385.595C800.54 385.595 799.047 385.221 797.724 384.475C796.423 383.728 795.399 382.672 794.652 381.307C793.906 379.92 793.532 378.32 793.532 376.507C793.532 374.693 793.895 373.104 794.62 371.739C795.346 370.373 796.359 369.328 797.66 368.603C798.983 367.856 800.498 367.483 802.204 367.483C803.868 367.483 805.34 367.845 806.62 368.571C807.9 369.296 808.882 370.299 809.564 371.579C810.268 372.837 810.62 374.267 810.62 375.867ZM807.612 375.259C807.612 374.149 807.367 373.2 806.876 372.411C806.386 371.6 805.714 370.992 804.86 370.587C804.028 370.16 803.1 369.947 802.076 369.947C800.604 369.947 799.346 370.416 798.3 371.355C797.276 372.293 796.69 373.595 796.54 375.259H807.612ZM821.696 367.483C823.211 367.483 824.533 367.813 825.664 368.475C826.816 369.136 827.669 369.968 828.224 370.971V367.771H831.168V385.691C831.168 387.291 830.827 388.709 830.144 389.947C829.461 391.205 828.48 392.187 827.2 392.891C825.941 393.595 824.469 393.947 822.784 393.947C820.48 393.947 818.56 393.403 817.024 392.315C815.488 391.227 814.581 389.744 814.304 387.867H817.184C817.504 388.933 818.165 389.787 819.168 390.427C820.171 391.088 821.376 391.419 822.784 391.419C824.384 391.419 825.685 390.917 826.688 389.915C827.712 388.912 828.224 387.504 828.224 385.691V382.011C827.648 383.035 826.795 383.888 825.664 384.571C824.533 385.253 823.211 385.595 821.696 385.595C820.139 385.595 818.72 385.211 817.44 384.443C816.181 383.675 815.189 382.597 814.464 381.211C813.739 379.824 813.376 378.245 813.376 376.475C813.376 374.683 813.739 373.115 814.464 371.771C815.189 370.405 816.181 369.349 817.44 368.603C818.72 367.856 820.139 367.483 821.696 367.483ZM828.224 376.507C828.224 375.184 827.957 374.032 827.424 373.051C826.891 372.069 826.165 371.323 825.248 370.811C824.352 370.277 823.36 370.011 822.272 370.011C821.184 370.011 820.192 370.267 819.296 370.779C818.4 371.291 817.685 372.037 817.152 373.019C816.619 374 816.352 375.152 816.352 376.475C816.352 377.819 816.619 378.992 817.152 379.995C817.685 380.976 818.4 381.733 819.296 382.267C820.192 382.779 821.184 383.035 822.272 383.035C823.36 383.035 824.352 382.779 825.248 382.267C826.165 381.733 826.891 380.976 827.424 379.995C827.957 378.992 828.224 377.829 828.224 376.507ZM857.177 367.451C858.542 367.451 859.758 367.739 860.825 368.315C861.892 368.869 862.734 369.712 863.353 370.843C863.972 371.973 864.281 373.349 864.281 374.971V385.307H861.401V375.387C861.401 373.637 860.964 372.304 860.089 371.387C859.236 370.448 858.073 369.979 856.601 369.979C855.086 369.979 853.881 370.469 852.985 371.451C852.089 372.411 851.641 373.808 851.641 375.643V385.307H848.761V375.387C848.761 373.637 848.324 372.304 847.449 371.387C846.596 370.448 845.433 369.979 843.961 369.979C842.446 369.979 841.241 370.469 840.345 371.451C839.449 372.411 839.001 373.808 839.001 375.643V385.307H836.089V367.771H839.001V370.299C839.577 369.381 840.345 368.677 841.305 368.187C842.286 367.696 843.364 367.451 844.537 367.451C846.009 367.451 847.31 367.781 848.441 368.443C849.572 369.104 850.414 370.075 850.969 371.355C851.46 370.117 852.27 369.157 853.401 368.475C854.532 367.792 855.79 367.451 857.177 367.451ZM885.058 375.867C885.058 376.421 885.026 377.008 884.962 377.627H870.946C871.052 379.355 871.639 380.709 872.706 381.691C873.794 382.651 875.106 383.131 876.642 383.131C877.9 383.131 878.946 382.843 879.778 382.267C880.631 381.669 881.228 380.88 881.57 379.899H884.706C884.236 381.584 883.298 382.96 881.89 384.027C880.482 385.072 878.732 385.595 876.642 385.595C874.978 385.595 873.484 385.221 872.162 384.475C870.86 383.728 869.836 382.672 869.09 381.307C868.343 379.92 867.97 378.32 867.97 376.507C867.97 374.693 868.332 373.104 869.058 371.739C869.783 370.373 870.796 369.328 872.098 368.603C873.42 367.856 874.935 367.483 876.642 367.483C878.306 367.483 879.778 367.845 881.058 368.571C882.338 369.296 883.319 370.299 884.002 371.579C884.706 372.837 885.058 374.267 885.058 375.867ZM882.05 375.259C882.05 374.149 881.804 373.2 881.314 372.411C880.823 371.6 880.151 370.992 879.298 370.587C878.466 370.16 877.538 369.947 876.514 369.947C875.042 369.947 873.783 370.416 872.738 371.355C871.714 372.293 871.127 373.595 870.978 375.259H882.05ZM897.445 367.451C899.579 367.451 901.307 368.101 902.629 369.403C903.952 370.683 904.613 372.539 904.613 374.971V385.307H901.733V375.387C901.733 373.637 901.296 372.304 900.421 371.387C899.547 370.448 898.352 369.979 896.837 369.979C895.301 369.979 894.075 370.459 893.157 371.419C892.261 372.379 891.813 373.776 891.813 375.611V385.307H888.901V367.771H891.813V370.267C892.389 369.371 893.168 368.677 894.149 368.187C895.152 367.696 896.251 367.451 897.445 367.451ZM912.922 370.171V380.507C912.922 381.36 913.104 381.968 913.466 382.331C913.829 382.672 914.458 382.843 915.354 382.843H917.498V385.307H914.874C913.253 385.307 912.037 384.933 911.226 384.187C910.416 383.44 910.01 382.213 910.01 380.507V370.171H907.738V367.771H910.01V363.355H912.922V367.771H917.498V370.171H912.922ZM927.234 385.595C925.89 385.595 924.685 385.371 923.618 384.923C922.552 384.453 921.709 383.813 921.09 383.003C920.472 382.171 920.13 381.221 920.066 380.155H923.074C923.16 381.029 923.565 381.744 924.29 382.299C925.037 382.853 926.008 383.131 927.202 383.131C928.312 383.131 929.186 382.885 929.826 382.395C930.466 381.904 930.786 381.285 930.786 380.539C930.786 379.771 930.445 379.205 929.762 378.843C929.08 378.459 928.024 378.085 926.594 377.723C925.293 377.381 924.226 377.04 923.394 376.699C922.584 376.336 921.88 375.813 921.282 375.131C920.706 374.427 920.418 373.509 920.418 372.379C920.418 371.483 920.685 370.661 921.218 369.915C921.752 369.168 922.509 368.581 923.49 368.155C924.472 367.707 925.592 367.483 926.85 367.483C928.792 367.483 930.36 367.973 931.554 368.955C932.749 369.936 933.389 371.28 933.474 372.987H930.562C930.498 372.069 930.125 371.333 929.442 370.779C928.781 370.224 927.885 369.947 926.754 369.947C925.709 369.947 924.877 370.171 924.258 370.619C923.64 371.067 923.33 371.653 923.33 372.379C923.33 372.955 923.512 373.435 923.874 373.819C924.258 374.181 924.728 374.48 925.282 374.715C925.858 374.928 926.648 375.173 927.65 375.451C928.909 375.792 929.933 376.133 930.722 376.475C931.512 376.795 932.184 377.285 932.738 377.947C933.314 378.608 933.613 379.472 933.634 380.539C933.634 381.499 933.368 382.363 932.834 383.131C932.301 383.899 931.544 384.507 930.562 384.955C929.602 385.381 928.493 385.595 927.234 385.595Z" fill="#151515"></path><path d="M716.173 250.307L695.301 227.429V220.893H706.164C708.905 220.893 711.272 219.953 713.265 218.072C715.255 216.194 716.458 213.866 716.871 211.088H692.197V204.552H715.94C715.061 202.645 713.755 201.079 712.024 199.852C710.29 198.627 708.336 198.015 706.164 198.015H692.197V191.479H729.441V198.015H719.354C720.079 198.941 720.725 199.949 721.294 201.038C721.863 202.128 722.303 203.299 722.613 204.552H729.441V211.088H723.156C722.743 215.718 720.932 219.599 717.725 222.73C714.518 225.863 710.664 227.429 706.164 227.429H703.914L724.786 250.307H716.173Z" fill="#118B64"></path><defs><filter id="filter0_d_4273_9783" x="0.865431" y="4.55847" width="557.152" height="550.508" filterUnits="userSpaceOnUse" color-interpolation-filters="sRGB"><feGaussianBlur stdDeviation="8.22061"></feGaussianBlur></filter><filter id="filter1_d_4273_9783" x="614.41" y="61.8083" width="436.903" height="431.692" filterUnits="userSpaceOnUse" color-interpolation-filters="sRGB"><feGaussianBlur stdDeviation="6.44636"></feGaussianBlur></filter></defs></svg>