<svg xmlns="http://www.w3.org/2000/svg" width="526" height="279" viewBox="0 0 526 279" fill="none"><g filter="url(#filter0_d_4273_9770)"><rect x="274.441" y="264.812" width="262.135" height="258.813" rx="20" transform="rotate(180 274.441 264.812)" fill="white"></rect></g><path opacity="0.6" d="M82.5974 200.424H77.7334L76.8374 202.904H75.3014L79.3334 191.816H81.0134L85.0294 202.904H83.4934L82.5974 200.424ZM82.1814 199.24L80.1654 193.608L78.1494 199.24H82.1814ZM86.2427 198.504C86.2427 197.598 86.424 196.808 86.7867 196.136C87.1494 195.454 87.6507 194.926 88.2907 194.552C88.9414 194.179 89.6827 193.992 90.5147 193.992C91.592 193.992 92.4774 194.254 93.1707 194.776C93.8747 195.299 94.3387 196.024 94.5627 196.952H92.9947C92.8454 196.419 92.552 195.998 92.1147 195.688C91.688 195.379 91.1547 195.224 90.5147 195.224C89.6827 195.224 89.0107 195.512 88.4987 196.088C87.9867 196.654 87.7307 197.459 87.7307 198.504C87.7307 199.56 87.9867 200.376 88.4987 200.952C89.0107 201.528 89.6827 201.816 90.5147 201.816C91.1547 201.816 91.688 201.667 92.1147 201.368C92.5414 201.07 92.8347 200.643 92.9947 200.088H94.5627C94.328 200.984 93.8587 201.704 93.1547 202.248C92.4507 202.782 91.5707 203.048 90.5147 203.048C89.6827 203.048 88.9414 202.862 88.2907 202.488C87.6507 202.115 87.1494 201.587 86.7867 200.904C86.424 200.222 86.2427 199.422 86.2427 198.504ZM95.9614 198.504C95.9614 197.598 96.1428 196.808 96.5054 196.136C96.8681 195.454 97.3694 194.926 98.0094 194.552C98.6601 194.179 99.4014 193.992 100.233 193.992C101.311 193.992 102.196 194.254 102.889 194.776C103.593 195.299 104.057 196.024 104.281 196.952H102.713C102.564 196.419 102.271 195.998 101.833 195.688C101.407 195.379 100.873 195.224 100.233 195.224C99.4014 195.224 98.7294 195.512 98.2174 196.088C97.7054 196.654 97.4494 197.459 97.4494 198.504C97.4494 199.56 97.7054 200.376 98.2174 200.952C98.7294 201.528 99.4014 201.816 100.233 201.816C100.873 201.816 101.407 201.667 101.833 201.368C102.26 201.07 102.553 200.643 102.713 200.088H104.281C104.047 200.984 103.577 201.704 102.873 202.248C102.169 202.782 101.289 203.048 100.233 203.048C99.4014 203.048 98.6601 202.862 98.0094 202.488C97.3694 202.115 96.8681 201.587 96.5054 200.904C96.1428 200.222 95.9614 199.422 95.9614 198.504ZM110.048 203.048C109.227 203.048 108.48 202.862 107.808 202.488C107.147 202.115 106.624 201.587 106.24 200.904C105.867 200.211 105.68 199.411 105.68 198.504C105.68 197.608 105.872 196.819 106.256 196.136C106.651 195.443 107.184 194.915 107.856 194.552C108.528 194.179 109.28 193.992 110.112 193.992C110.944 193.992 111.696 194.179 112.368 194.552C113.04 194.915 113.568 195.438 113.952 196.12C114.347 196.803 114.544 197.598 114.544 198.504C114.544 199.411 114.342 200.211 113.936 200.904C113.542 201.587 113.003 202.115 112.32 202.488C111.638 202.862 110.88 203.048 110.048 203.048ZM110.048 201.768C110.571 201.768 111.062 201.646 111.52 201.4C111.979 201.155 112.347 200.787 112.624 200.296C112.912 199.806 113.056 199.208 113.056 198.504C113.056 197.8 112.918 197.203 112.64 196.712C112.363 196.222 112 195.859 111.552 195.624C111.104 195.379 110.619 195.256 110.096 195.256C109.563 195.256 109.072 195.379 108.624 195.624C108.187 195.859 107.835 196.222 107.568 196.712C107.302 197.203 107.168 197.8 107.168 198.504C107.168 199.219 107.296 199.822 107.552 200.312C107.819 200.803 108.171 201.171 108.608 201.416C109.046 201.651 109.526 201.768 110.048 201.768ZM124.235 194.136V202.904H122.779V201.608C122.501 202.056 122.112 202.408 121.611 202.664C121.12 202.91 120.576 203.032 119.979 203.032C119.296 203.032 118.683 202.894 118.139 202.616C117.595 202.328 117.163 201.902 116.843 201.336C116.533 200.771 116.379 200.083 116.379 199.272V194.136H117.819V199.08C117.819 199.944 118.037 200.611 118.475 201.08C118.912 201.539 119.509 201.768 120.267 201.768C121.045 201.768 121.659 201.528 122.107 201.048C122.555 200.568 122.779 199.87 122.779 198.952V194.136H124.235ZM130.965 193.976C132.032 193.976 132.896 194.302 133.557 194.952C134.218 195.592 134.549 196.52 134.549 197.736V202.904H133.109V197.944C133.109 197.07 132.89 196.403 132.453 195.944C132.016 195.475 131.418 195.24 130.661 195.24C129.893 195.24 129.28 195.48 128.821 195.96C128.373 196.44 128.149 197.139 128.149 198.056V202.904H126.693V194.136H128.149V195.384C128.437 194.936 128.826 194.59 129.317 194.344C129.818 194.099 130.368 193.976 130.965 193.976ZM138.703 195.336V200.504C138.703 200.931 138.794 201.235 138.975 201.416C139.157 201.587 139.471 201.672 139.919 201.672H140.991V202.904H139.679C138.869 202.904 138.261 202.718 137.855 202.344C137.45 201.971 137.247 201.358 137.247 200.504V195.336H136.111V194.136H137.247V191.928H138.703V194.136H140.991V195.336H138.703ZM150.845 203.048C150.024 203.048 149.277 202.862 148.605 202.488C147.944 202.115 147.421 201.587 147.037 200.904C146.664 200.211 146.477 199.411 146.477 198.504C146.477 197.608 146.669 196.819 147.053 196.136C147.448 195.443 147.981 194.915 148.653 194.552C149.325 194.179 150.077 193.992 150.909 193.992C151.741 193.992 152.493 194.179 153.165 194.552C153.837 194.915 154.365 195.438 154.749 196.12C155.144 196.803 155.341 197.598 155.341 198.504C155.341 199.411 155.138 200.211 154.733 200.904C154.338 201.587 153.8 202.115 153.117 202.488C152.434 202.862 151.677 203.048 150.845 203.048ZM150.845 201.768C151.368 201.768 151.858 201.646 152.317 201.4C152.776 201.155 153.144 200.787 153.421 200.296C153.709 199.806 153.853 199.208 153.853 198.504C153.853 197.8 153.714 197.203 153.437 196.712C153.16 196.222 152.797 195.859 152.349 195.624C151.901 195.379 151.416 195.256 150.893 195.256C150.36 195.256 149.869 195.379 149.421 195.624C148.984 195.859 148.632 196.222 148.365 196.712C148.098 197.203 147.965 197.8 147.965 198.504C147.965 199.219 148.093 199.822 148.349 200.312C148.616 200.803 148.968 201.171 149.405 201.416C149.842 201.651 150.322 201.768 150.845 201.768ZM158.711 195.752C158.999 195.251 159.426 194.835 159.991 194.504C160.567 194.163 161.234 193.992 161.991 193.992C162.77 193.992 163.474 194.179 164.103 194.552C164.743 194.926 165.245 195.454 165.607 196.136C165.97 196.808 166.151 197.592 166.151 198.488C166.151 199.374 165.97 200.163 165.607 200.856C165.245 201.55 164.743 202.088 164.103 202.472C163.474 202.856 162.77 203.048 161.991 203.048C161.245 203.048 160.583 202.883 160.007 202.552C159.442 202.211 159.01 201.79 158.711 201.288V207.064H157.255V194.136H158.711V195.752ZM164.663 198.488C164.663 197.827 164.53 197.251 164.263 196.76C163.997 196.27 163.634 195.896 163.175 195.64C162.727 195.384 162.231 195.256 161.687 195.256C161.154 195.256 160.658 195.39 160.199 195.656C159.751 195.912 159.389 196.291 159.111 196.792C158.845 197.283 158.711 197.854 158.711 198.504C158.711 199.166 158.845 199.747 159.111 200.248C159.389 200.739 159.751 201.118 160.199 201.384C160.658 201.64 161.154 201.768 161.687 201.768C162.231 201.768 162.727 201.64 163.175 201.384C163.634 201.118 163.997 200.739 164.263 200.248C164.53 199.747 164.663 199.16 164.663 198.488ZM176.068 198.184C176.068 198.462 176.052 198.755 176.02 199.064H169.012C169.065 199.928 169.359 200.606 169.892 201.096C170.436 201.576 171.092 201.816 171.86 201.816C172.489 201.816 173.012 201.672 173.428 201.384C173.855 201.086 174.153 200.691 174.324 200.2H175.892C175.657 201.043 175.188 201.731 174.484 202.264C173.78 202.787 172.905 203.048 171.86 203.048C171.028 203.048 170.281 202.862 169.62 202.488C168.969 202.115 168.457 201.587 168.084 200.904C167.711 200.211 167.524 199.411 167.524 198.504C167.524 197.598 167.705 196.803 168.068 196.12C168.431 195.438 168.937 194.915 169.588 194.552C170.249 194.179 171.007 193.992 171.86 193.992C172.692 193.992 173.428 194.174 174.068 194.536C174.708 194.899 175.199 195.4 175.54 196.04C175.892 196.67 176.068 197.384 176.068 198.184ZM174.564 197.88C174.564 197.326 174.441 196.851 174.196 196.456C173.951 196.051 173.615 195.747 173.188 195.544C172.772 195.331 172.308 195.224 171.796 195.224C171.06 195.224 170.431 195.459 169.908 195.928C169.396 196.398 169.103 197.048 169.028 197.88H174.564ZM182.262 193.976C183.328 193.976 184.192 194.302 184.854 194.952C185.515 195.592 185.846 196.52 185.846 197.736V202.904H184.406V197.944C184.406 197.07 184.187 196.403 183.75 195.944C183.312 195.475 182.715 195.24 181.958 195.24C181.19 195.24 180.576 195.48 180.118 195.96C179.67 196.44 179.446 197.139 179.446 198.056V202.904H177.99V194.136H179.446V195.384C179.734 194.936 180.123 194.59 180.614 194.344C181.115 194.099 181.664 193.976 182.262 193.976ZM188.976 192.712C188.699 192.712 188.464 192.616 188.272 192.424C188.08 192.232 187.984 191.998 187.984 191.72C187.984 191.443 188.08 191.208 188.272 191.016C188.464 190.824 188.699 190.728 188.976 190.728C189.243 190.728 189.467 190.824 189.648 191.016C189.84 191.208 189.936 191.443 189.936 191.72C189.936 191.998 189.84 192.232 189.648 192.424C189.467 192.616 189.243 192.712 188.976 192.712ZM189.68 194.136V202.904H188.224V194.136H189.68ZM196.434 193.976C197.5 193.976 198.364 194.302 199.026 194.952C199.687 195.592 200.018 196.52 200.018 197.736V202.904H198.578V197.944C198.578 197.07 198.359 196.403 197.922 195.944C197.484 195.475 196.887 195.24 196.13 195.24C195.362 195.24 194.748 195.48 194.29 195.96C193.842 196.44 193.618 197.139 193.618 198.056V202.904H192.162V194.136H193.618V195.384C193.906 194.936 194.295 194.59 194.786 194.344C195.287 194.099 195.836 193.976 196.434 193.976ZM206.012 193.992C206.769 193.992 207.431 194.158 207.996 194.488C208.572 194.819 208.999 195.235 209.276 195.736V194.136H210.748V203.096C210.748 203.896 210.577 204.606 210.236 205.224C209.895 205.854 209.404 206.344 208.764 206.696C208.135 207.048 207.399 207.224 206.556 207.224C205.404 207.224 204.444 206.952 203.676 206.408C202.908 205.864 202.455 205.123 202.316 204.184H203.756C203.916 204.718 204.247 205.144 204.748 205.464C205.249 205.795 205.852 205.96 206.556 205.96C207.356 205.96 208.007 205.71 208.508 205.208C209.02 204.707 209.276 204.003 209.276 203.096V201.256C208.988 201.768 208.561 202.195 207.996 202.536C207.431 202.878 206.769 203.048 206.012 203.048C205.233 203.048 204.524 202.856 203.884 202.472C203.255 202.088 202.759 201.55 202.396 200.856C202.033 200.163 201.852 199.374 201.852 198.488C201.852 197.592 202.033 196.808 202.396 196.136C202.759 195.454 203.255 194.926 203.884 194.552C204.524 194.179 205.233 193.992 206.012 193.992ZM209.276 198.504C209.276 197.843 209.143 197.267 208.876 196.776C208.609 196.286 208.247 195.912 207.788 195.656C207.34 195.39 206.844 195.256 206.3 195.256C205.756 195.256 205.26 195.384 204.812 195.64C204.364 195.896 204.007 196.27 203.74 196.76C203.473 197.251 203.34 197.827 203.34 198.488C203.34 199.16 203.473 199.747 203.74 200.248C204.007 200.739 204.364 201.118 204.812 201.384C205.26 201.64 205.756 201.768 206.3 201.768C206.844 201.768 207.34 201.64 207.788 201.384C208.247 201.118 208.609 200.739 208.876 200.248C209.143 199.747 209.276 199.166 209.276 198.504ZM115.329 222.504C115.329 221.598 115.51 220.808 115.873 220.136C116.235 219.454 116.737 218.926 117.377 218.552C118.027 218.179 118.769 217.992 119.601 217.992C120.678 217.992 121.563 218.254 122.257 218.776C122.961 219.299 123.425 220.024 123.649 220.952H122.081C121.931 220.419 121.638 219.998 121.201 219.688C120.774 219.379 120.241 219.224 119.601 219.224C118.769 219.224 118.097 219.512 117.585 220.088C117.073 220.654 116.817 221.459 116.817 222.504C116.817 223.56 117.073 224.376 117.585 224.952C118.097 225.528 118.769 225.816 119.601 225.816C120.241 225.816 120.774 225.667 121.201 225.368C121.627 225.07 121.921 224.643 122.081 224.088H123.649C123.414 224.984 122.945 225.704 122.241 226.248C121.537 226.782 120.657 227.048 119.601 227.048C118.769 227.048 118.027 226.862 117.377 226.488C116.737 226.115 116.235 225.587 115.873 224.904C115.51 224.222 115.329 223.422 115.329 222.504ZM129.943 217.976C130.605 217.976 131.202 218.12 131.735 218.408C132.269 218.686 132.685 219.107 132.983 219.672C133.293 220.238 133.447 220.926 133.447 221.736V226.904H132.007V221.944C132.007 221.07 131.789 220.403 131.351 219.944C130.914 219.475 130.317 219.24 129.559 219.24C128.791 219.24 128.178 219.48 127.719 219.96C127.271 220.44 127.047 221.139 127.047 222.056V226.904H125.591V215.064H127.047V219.384C127.335 218.936 127.73 218.59 128.231 218.344C128.743 218.099 129.314 217.976 129.943 217.976ZM135.282 222.488C135.282 221.592 135.463 220.808 135.826 220.136C136.188 219.454 136.684 218.926 137.314 218.552C137.954 218.179 138.663 217.992 139.442 217.992C140.21 217.992 140.876 218.158 141.442 218.488C142.007 218.819 142.428 219.235 142.706 219.736V218.136H144.178V226.904H142.706V225.272C142.418 225.784 141.986 226.211 141.41 226.552C140.844 226.883 140.183 227.048 139.426 227.048C138.647 227.048 137.943 226.856 137.314 226.472C136.684 226.088 136.188 225.55 135.826 224.856C135.463 224.163 135.282 223.374 135.282 222.488ZM142.706 222.504C142.706 221.843 142.572 221.267 142.306 220.776C142.039 220.286 141.676 219.912 141.218 219.656C140.77 219.39 140.274 219.256 139.73 219.256C139.186 219.256 138.69 219.384 138.242 219.64C137.794 219.896 137.436 220.27 137.17 220.76C136.903 221.251 136.77 221.827 136.77 222.488C136.77 223.16 136.903 223.747 137.17 224.248C137.436 224.739 137.794 225.118 138.242 225.384C138.69 225.64 139.186 225.768 139.73 225.768C140.274 225.768 140.77 225.64 141.218 225.384C141.676 225.118 142.039 224.739 142.306 224.248C142.572 223.747 142.706 223.166 142.706 222.504ZM148.094 219.56C148.35 219.059 148.713 218.67 149.182 218.392C149.662 218.115 150.244 217.976 150.926 217.976V219.48H150.542C148.91 219.48 148.094 220.366 148.094 222.136V226.904H146.638V218.136H148.094V219.56ZM156.223 217.992C156.98 217.992 157.642 218.158 158.207 218.488C158.783 218.819 159.21 219.235 159.487 219.736V218.136H160.959V227.096C160.959 227.896 160.788 228.606 160.447 229.224C160.106 229.854 159.615 230.344 158.975 230.696C158.346 231.048 157.61 231.224 156.767 231.224C155.615 231.224 154.655 230.952 153.887 230.408C153.119 229.864 152.666 229.123 152.527 228.184H153.967C154.127 228.718 154.458 229.144 154.959 229.464C155.46 229.795 156.063 229.96 156.767 229.96C157.567 229.96 158.218 229.71 158.719 229.208C159.231 228.707 159.487 228.003 159.487 227.096V225.256C159.199 225.768 158.772 226.195 158.207 226.536C157.642 226.878 156.98 227.048 156.223 227.048C155.444 227.048 154.735 226.856 154.095 226.472C153.466 226.088 152.97 225.55 152.607 224.856C152.244 224.163 152.063 223.374 152.063 222.488C152.063 221.592 152.244 220.808 152.607 220.136C152.97 219.454 153.466 218.926 154.095 218.552C154.735 218.179 155.444 217.992 156.223 217.992ZM159.487 222.504C159.487 221.843 159.354 221.267 159.087 220.776C158.82 220.286 158.458 219.912 157.999 219.656C157.551 219.39 157.055 219.256 156.511 219.256C155.967 219.256 155.471 219.384 155.023 219.64C154.575 219.896 154.218 220.27 153.951 220.76C153.684 221.251 153.551 221.827 153.551 222.488C153.551 223.16 153.684 223.747 153.951 224.248C154.218 224.739 154.575 225.118 155.023 225.384C155.471 225.64 155.967 225.768 156.511 225.768C157.055 225.768 157.551 225.64 157.999 225.384C158.458 225.118 158.82 224.739 159.087 224.248C159.354 223.747 159.487 223.166 159.487 222.504ZM171.42 222.184C171.42 222.462 171.404 222.755 171.372 223.064H164.364C164.417 223.928 164.71 224.606 165.244 225.096C165.788 225.576 166.444 225.816 167.212 225.816C167.841 225.816 168.364 225.672 168.78 225.384C169.206 225.086 169.505 224.691 169.676 224.2H171.244C171.009 225.043 170.54 225.731 169.836 226.264C169.132 226.787 168.257 227.048 167.212 227.048C166.38 227.048 165.633 226.862 164.972 226.488C164.321 226.115 163.809 225.587 163.436 224.904C163.062 224.211 162.876 223.411 162.876 222.504C162.876 221.598 163.057 220.803 163.42 220.12C163.782 219.438 164.289 218.915 164.94 218.552C165.601 218.179 166.358 217.992 167.212 217.992C168.044 217.992 168.78 218.174 169.42 218.536C170.06 218.899 170.55 219.4 170.892 220.04C171.244 220.67 171.42 221.384 171.42 222.184ZM169.916 221.88C169.916 221.326 169.793 220.851 169.548 220.456C169.302 220.051 168.966 219.747 168.54 219.544C168.124 219.331 167.66 219.224 167.148 219.224C166.412 219.224 165.782 219.459 165.26 219.928C164.748 220.398 164.454 221.048 164.38 221.88H169.916Z" fill="#151515"></path><path d="M105.638 110.646C105.638 94.2223 108.391 81.4061 113.897 72.1974C119.498 62.8938 129.087 58.242 142.662 58.242C156.238 58.242 165.779 62.8938 171.285 72.1974C176.886 81.4061 179.687 94.2223 179.687 110.646C179.687 127.26 176.886 140.266 171.285 149.664C165.779 158.968 156.238 163.619 142.662 163.619C129.087 163.619 119.498 158.968 113.897 149.664C108.391 140.266 105.638 127.26 105.638 110.646ZM163.738 110.646C163.738 102.956 163.216 96.4532 162.171 91.1369C161.222 85.8205 159.228 81.501 156.191 78.1783C153.153 74.7607 148.643 73.0518 142.662 73.0518C136.681 73.0518 132.172 74.7607 129.134 78.1783C126.096 81.501 124.055 85.8205 123.011 91.1369C122.062 96.4532 121.587 102.956 121.587 110.646C121.587 118.62 122.062 125.313 123.011 130.725C123.96 136.136 125.954 140.503 128.992 143.826C132.125 147.148 136.681 148.81 142.662 148.81C148.643 148.81 153.153 147.148 156.191 143.826C159.323 140.503 161.365 136.136 162.314 130.725C163.263 125.313 163.738 118.62 163.738 110.646Z" fill="#118B64"></path><path d="M85.5218 97.9575L72.2133 83.3702V79.2024H79.1397C80.8877 79.2024 82.397 78.6029 83.6675 77.404C84.9367 76.2064 85.7032 74.722 85.9671 72.9507H70.2344V68.7829H85.3734C84.8127 67.5673 83.9802 66.5684 82.8759 65.7862C81.7704 65.0055 80.5249 64.6151 79.1397 64.6151H70.2344V60.4473H93.9818V64.6151H87.5502C88.012 65.2055 88.4243 65.848 88.7871 66.5427C89.1499 67.2373 89.4302 67.984 89.6281 68.7829H93.9818V72.9507H89.9744C89.7106 75.9029 88.5562 78.3772 86.5113 80.3735C84.4663 82.3713 82.0091 83.3702 79.1397 83.3702H77.7049L91.0134 97.9575H85.5218Z" fill="#118B64"></path><g filter="url(#filter1_d_4273_9770)"><rect x="522" y="236.883" width="205.559" height="202.953" rx="15.6834" transform="rotate(180 522 236.883)" fill="white"></rect></g><path d="M381.032 140.499C386.051 136.16 389.998 132.605 392.873 129.834C395.801 127.011 398.231 124.083 400.166 121.051C402.1 118.019 403.067 114.987 403.067 111.955C403.067 108.818 402.309 106.361 400.793 104.584C399.329 102.806 397.003 101.917 393.814 101.917C390.73 101.917 388.325 102.911 386.6 104.897C384.927 106.832 384.038 109.446 383.933 112.739H375.308C375.464 106.779 377.242 102.231 380.64 99.0945C384.09 95.9055 388.456 94.311 393.736 94.311C399.434 94.311 403.878 95.8794 407.066 99.016C410.308 102.153 411.928 106.335 411.928 111.563C411.928 115.327 410.961 118.96 409.027 122.463C407.145 125.913 404.871 129.024 402.205 131.794C399.591 134.513 396.245 137.676 392.167 141.283L388.638 144.42H413.497V151.869H375.386V145.361L381.032 140.499ZM421.35 123.325C421.35 114.281 422.866 107.224 425.898 102.153C428.983 97.0295 434.263 94.4679 441.738 94.4679C449.214 94.4679 454.468 97.0295 457.5 102.153C460.585 107.224 462.127 114.281 462.127 123.325C462.127 132.474 460.585 139.636 457.5 144.812C454.468 149.935 449.214 152.496 441.738 152.496C434.263 152.496 428.983 149.935 425.898 144.812C422.866 139.636 421.35 132.474 421.35 123.325ZM453.344 123.325C453.344 119.091 453.057 115.51 452.482 112.582C451.959 109.655 450.861 107.276 449.188 105.446C447.515 103.564 445.032 102.623 441.738 102.623C438.445 102.623 435.962 103.564 434.289 105.446C432.616 107.276 431.492 109.655 430.917 112.582C430.394 115.51 430.133 119.091 430.133 123.325C430.133 127.717 430.394 131.402 430.917 134.382C431.44 137.362 432.538 139.767 434.21 141.597C435.936 143.426 438.445 144.341 441.738 144.341C445.032 144.341 447.515 143.426 449.188 141.597C450.913 139.767 452.037 137.362 452.56 134.382C453.083 131.402 453.344 127.717 453.344 123.325Z" fill="#118B64"></path><path opacity="0.6" d="M372.275 191.173H367.411L366.515 193.653H364.979L369.011 182.565H370.691L374.707 193.653H373.171L372.275 191.173ZM371.859 189.989L369.843 184.357L367.827 189.989H371.859ZM377.92 181.813V193.653H376.464V181.813H377.92ZM381.858 181.813V193.653H380.402V181.813H381.858ZM391.709 193.797C391.037 193.797 390.434 193.685 389.901 193.461C389.368 193.227 388.946 192.907 388.637 192.501C388.328 192.085 388.157 191.611 388.125 191.077H389.629C389.672 191.515 389.874 191.872 390.237 192.149C390.61 192.427 391.096 192.565 391.693 192.565C392.248 192.565 392.685 192.443 393.005 192.197C393.325 191.952 393.485 191.643 393.485 191.269C393.485 190.885 393.314 190.603 392.973 190.421C392.632 190.229 392.104 190.043 391.389 189.861C390.738 189.691 390.205 189.52 389.789 189.349C389.384 189.168 389.032 188.907 388.733 188.565C388.445 188.213 388.301 187.755 388.301 187.189C388.301 186.741 388.434 186.331 388.701 185.957C388.968 185.584 389.346 185.291 389.837 185.077C390.328 184.853 390.888 184.741 391.517 184.741C392.488 184.741 393.272 184.987 393.869 185.477C394.466 185.968 394.786 186.64 394.829 187.493H393.373C393.341 187.035 393.154 186.667 392.813 186.389C392.482 186.112 392.034 185.973 391.469 185.973C390.946 185.973 390.53 186.085 390.221 186.309C389.912 186.533 389.757 186.827 389.757 187.189C389.757 187.477 389.848 187.717 390.029 187.909C390.221 188.091 390.456 188.24 390.733 188.357C391.021 188.464 391.416 188.587 391.917 188.725C392.546 188.896 393.058 189.067 393.453 189.237C393.848 189.397 394.184 189.643 394.461 189.973C394.749 190.304 394.898 190.736 394.909 191.269C394.909 191.749 394.776 192.181 394.509 192.565C394.242 192.949 393.864 193.253 393.373 193.477C392.893 193.691 392.338 193.797 391.709 193.797ZM404.964 188.933C404.964 189.211 404.948 189.504 404.916 189.813H397.908C397.962 190.677 398.255 191.355 398.788 191.845C399.332 192.325 399.988 192.565 400.756 192.565C401.386 192.565 401.908 192.421 402.324 192.133C402.751 191.835 403.05 191.44 403.22 190.949H404.788C404.554 191.792 404.084 192.48 403.38 193.013C402.676 193.536 401.802 193.797 400.756 193.797C399.924 193.797 399.178 193.611 398.516 193.237C397.866 192.864 397.354 192.336 396.98 191.653C396.607 190.96 396.42 190.16 396.42 189.253C396.42 188.347 396.602 187.552 396.964 186.869C397.327 186.187 397.834 185.664 398.484 185.301C399.146 184.928 399.903 184.741 400.756 184.741C401.588 184.741 402.324 184.923 402.964 185.285C403.604 185.648 404.095 186.149 404.436 186.789C404.788 187.419 404.964 188.133 404.964 188.933ZM403.46 188.629C403.46 188.075 403.338 187.6 403.092 187.205C402.847 186.8 402.511 186.496 402.084 186.293C401.668 186.08 401.204 185.973 400.692 185.973C399.956 185.973 399.327 186.208 398.804 186.677C398.292 187.147 397.999 187.797 397.924 188.629H403.46ZM410.502 184.741C411.26 184.741 411.921 184.907 412.486 185.237C413.062 185.568 413.489 185.984 413.766 186.485V184.885H415.238V193.845C415.238 194.645 415.068 195.355 414.726 195.973C414.385 196.603 413.894 197.093 413.254 197.445C412.625 197.797 411.889 197.973 411.046 197.973C409.894 197.973 408.934 197.701 408.166 197.157C407.398 196.613 406.945 195.872 406.806 194.933H408.246C408.406 195.467 408.737 195.893 409.238 196.213C409.74 196.544 410.342 196.709 411.046 196.709C411.846 196.709 412.497 196.459 412.998 195.957C413.51 195.456 413.766 194.752 413.766 193.845V192.005C413.478 192.517 413.052 192.944 412.486 193.285C411.921 193.627 411.26 193.797 410.502 193.797C409.724 193.797 409.014 193.605 408.374 193.221C407.745 192.837 407.249 192.299 406.886 191.605C406.524 190.912 406.342 190.123 406.342 189.237C406.342 188.341 406.524 187.557 406.886 186.885C407.249 186.203 407.745 185.675 408.374 185.301C409.014 184.928 409.724 184.741 410.502 184.741ZM413.766 189.253C413.766 188.592 413.633 188.016 413.366 187.525C413.1 187.035 412.737 186.661 412.278 186.405C411.83 186.139 411.334 186.005 410.79 186.005C410.246 186.005 409.75 186.133 409.302 186.389C408.854 186.645 408.497 187.019 408.23 187.509C407.964 188 407.83 188.576 407.83 189.237C407.83 189.909 407.964 190.496 408.23 190.997C408.497 191.488 408.854 191.867 409.302 192.133C409.75 192.389 410.246 192.517 410.79 192.517C411.334 192.517 411.83 192.389 412.278 192.133C412.737 191.867 413.1 191.488 413.366 190.997C413.633 190.496 413.766 189.915 413.766 189.253ZM428.243 184.725C428.925 184.725 429.533 184.869 430.067 185.157C430.6 185.435 431.021 185.856 431.331 186.421C431.64 186.987 431.795 187.675 431.795 188.485V193.653H430.355V188.693C430.355 187.819 430.136 187.152 429.699 186.693C429.272 186.224 428.691 185.989 427.955 185.989C427.197 185.989 426.595 186.235 426.147 186.725C425.699 187.205 425.475 187.904 425.475 188.821V193.653H424.035V188.693C424.035 187.819 423.816 187.152 423.379 186.693C422.952 186.224 422.371 185.989 421.635 185.989C420.877 185.989 420.275 186.235 419.827 186.725C419.379 187.205 419.155 187.904 419.155 188.821V193.653H417.699V184.885H419.155V186.149C419.443 185.691 419.827 185.339 420.307 185.093C420.797 184.848 421.336 184.725 421.923 184.725C422.659 184.725 423.309 184.891 423.875 185.221C424.44 185.552 424.861 186.037 425.139 186.677C425.384 186.059 425.789 185.579 426.355 185.237C426.92 184.896 427.549 184.725 428.243 184.725ZM442.183 188.933C442.183 189.211 442.167 189.504 442.135 189.813H435.127C435.181 190.677 435.474 191.355 436.007 191.845C436.551 192.325 437.207 192.565 437.975 192.565C438.605 192.565 439.127 192.421 439.543 192.133C439.97 191.835 440.269 191.44 440.439 190.949H442.007C441.773 191.792 441.303 192.48 440.599 193.013C439.895 193.536 439.021 193.797 437.975 193.797C437.143 193.797 436.397 193.611 435.735 193.237C435.085 192.864 434.573 192.336 434.199 191.653C433.826 190.96 433.639 190.16 433.639 189.253C433.639 188.347 433.821 187.552 434.183 186.869C434.546 186.187 435.053 185.664 435.703 185.301C436.365 184.928 437.122 184.741 437.975 184.741C438.807 184.741 439.543 184.923 440.183 185.285C440.823 185.648 441.314 186.149 441.655 186.789C442.007 187.419 442.183 188.133 442.183 188.933ZM440.679 188.629C440.679 188.075 440.557 187.6 440.311 187.205C440.066 186.8 439.73 186.496 439.303 186.293C438.887 186.08 438.423 185.973 437.911 185.973C437.175 185.973 436.546 186.208 436.023 186.677C435.511 187.147 435.218 187.797 435.143 188.629H440.679ZM448.377 184.725C449.444 184.725 450.308 185.051 450.969 185.701C451.63 186.341 451.961 187.269 451.961 188.485V193.653H450.521V188.693C450.521 187.819 450.302 187.152 449.865 186.693C449.428 186.224 448.83 185.989 448.073 185.989C447.305 185.989 446.692 186.229 446.233 186.709C445.785 187.189 445.561 187.888 445.561 188.805V193.653H444.105V184.885H445.561V186.133C445.849 185.685 446.238 185.339 446.729 185.093C447.23 184.848 447.78 184.725 448.377 184.725ZM456.115 186.085V191.253C456.115 191.68 456.206 191.984 456.387 192.165C456.569 192.336 456.883 192.421 457.331 192.421H458.403V193.653H457.091C456.281 193.653 455.673 193.467 455.267 193.093C454.862 192.72 454.659 192.107 454.659 191.253V186.085H453.523V184.885H454.659V182.677H456.115V184.885H458.403V186.085H456.115ZM463.272 193.797C462.6 193.797 461.997 193.685 461.464 193.461C460.93 193.227 460.509 192.907 460.2 192.501C459.89 192.085 459.72 191.611 459.688 191.077H461.192C461.234 191.515 461.437 191.872 461.8 192.149C462.173 192.427 462.658 192.565 463.256 192.565C463.81 192.565 464.248 192.443 464.568 192.197C464.888 191.952 465.048 191.643 465.048 191.269C465.048 190.885 464.877 190.603 464.536 190.421C464.194 190.229 463.666 190.043 462.952 189.861C462.301 189.691 461.768 189.52 461.352 189.349C460.946 189.168 460.594 188.907 460.296 188.565C460.008 188.213 459.864 187.755 459.864 187.189C459.864 186.741 459.997 186.331 460.264 185.957C460.53 185.584 460.909 185.291 461.4 185.077C461.89 184.853 462.45 184.741 463.08 184.741C464.05 184.741 464.834 184.987 465.432 185.477C466.029 185.968 466.349 186.64 466.392 187.493H464.936C464.904 187.035 464.717 186.667 464.376 186.389C464.045 186.112 463.597 185.973 463.032 185.973C462.509 185.973 462.093 186.085 461.784 186.309C461.474 186.533 461.32 186.827 461.32 187.189C461.32 187.477 461.41 187.717 461.592 187.909C461.784 188.091 462.018 188.24 462.296 188.357C462.584 188.464 462.978 188.587 463.48 188.725C464.109 188.896 464.621 189.067 465.016 189.237C465.41 189.397 465.746 189.643 466.024 189.973C466.312 190.304 466.461 190.736 466.472 191.269C466.472 191.749 466.338 192.181 466.072 192.565C465.805 192.949 465.426 193.253 464.936 193.477C464.456 193.691 463.901 193.797 463.272 193.797Z" fill="#151515"></path><path d="M357.74 125.654L347.304 114.215V110.946H352.735C354.106 110.946 355.29 110.476 356.286 109.536C357.281 108.597 357.882 107.433 358.089 106.044H345.752V102.776H357.624C357.184 101.823 356.531 101.039 355.665 100.426C354.798 99.8137 353.822 99.5075 352.735 99.5075H345.752V96.2393H364.374V99.5075H359.331C359.693 99.9705 360.016 100.474 360.3 101.019C360.585 101.564 360.805 102.149 360.96 102.776H364.374V106.044H361.232C361.025 108.359 360.119 110.299 358.516 111.865C356.912 113.431 354.985 114.215 352.735 114.215H351.61L362.046 125.654H357.74Z" fill="#118B64"></path><defs><filter id="filter0_d_4273_9770" x="0.0860271" y="2.77923" width="278.576" height="275.254" filterUnits="userSpaceOnUse" color-interpolation-filters="sRGB"><feGaussianBlur stdDeviation="4.11031"></feGaussianBlur></filter><filter id="filter1_d_4273_9770" x="306.858" y="31.4041" width="218.451" height="215.846" filterUnits="userSpaceOnUse" color-interpolation-filters="sRGB"><feGaussianBlur stdDeviation="3.22318"></feGaussianBlur></filter></defs></svg>