<svg width="29" height="29" viewBox="0 0 29 29" fill="none" xmlns="http://www.w3.org/2000/svg">
<path d="M20.2863 28.7363C16.6824 28.7363 11.6538 26.8039 6.81671 21.9662C0.620571 15.7698 -0.810272 9.25876 0.483341 5.83069C1.40827 3.38043 3.9875 2.57945 5.44275 2.32026C6.36508 2.15747 7.29495 2.62866 7.70364 3.46971L9.96272 8.11345C10.3683 8.94643 10.1727 9.96358 9.4871 10.5869L7.56589 12.3326C7.64246 12.9528 8.11887 14.8688 11.0166 17.7666C13.9035 20.654 15.8163 21.1374 16.4525 21.2163L18.1959 19.2969C18.8186 18.6116 19.8373 18.4151 20.6699 18.8205L25.3133 21.0796C26.1549 21.4888 26.6274 22.4186 26.4628 23.3404C26.2036 24.7952 25.4029 27.3744 22.9531 28.2993C22.2012 28.5832 21.3005 28.7359 20.2874 28.7359L20.2863 28.7363ZM5.81516 3.68823C5.77322 3.68823 5.73051 3.69187 5.68779 3.69943C4.52454 3.90677 2.47276 4.52327 1.79241 6.3258C0.653098 9.34625 2.04898 15.2197 7.80598 20.9763C13.565 26.7351 19.4398 28.1305 22.4565 26.9899C24.2592 26.3095 24.8755 24.2575 25.0828 23.0948C25.1388 22.7811 24.9849 22.478 24.6994 22.3394L20.056 20.0803C19.7788 19.9451 19.4392 20.01 19.2316 20.2395L17.27 22.3985C17.1564 22.5233 17.0019 22.6027 16.8345 22.6233C16.5623 22.6546 14.0873 22.8194 10.0256 18.7573C5.96437 14.6958 6.12767 12.2182 6.15968 11.9485C6.17947 11.7808 6.25944 11.6266 6.3842 11.513L8.54407 9.5506C8.77303 9.343 8.83788 9.00439 8.7027 8.72649L6.44361 4.08275C6.32405 3.83634 6.08129 3.68813 5.81509 3.68813L5.81516 3.68823Z" fill="#118B64"/>
<path d="M27.3448 12.9256C27.0106 12.9256 26.7152 12.686 26.6556 12.3458C25.7473 7.141 21.6402 3.03377 16.4354 2.12558C16.0546 2.05864 15.7996 1.69606 15.866 1.31527C15.9324 0.93446 16.2898 0.679451 16.6763 0.745872C22.4609 1.75549 27.0252 6.32054 28.0354 12.105C28.1018 12.4858 27.8468 12.8484 27.466 12.9153C27.4257 12.9221 27.3845 12.9255 27.3452 12.9255L27.3448 12.9256Z" fill="#118B64"/>
<path d="M23.005 13.857C22.6711 13.857 22.3755 13.6177 22.3158 13.2775C21.7094 9.81061 18.9724 7.07355 15.505 6.46668C15.1242 6.39974 14.8697 6.03716 14.9364 5.65637C15.0028 5.27582 15.3617 5.01821 15.7475 5.08776C19.7937 5.79572 22.9877 8.99041 23.6959 13.0361C23.7623 13.417 23.5076 13.7795 23.1265 13.8465C23.0861 13.8535 23.045 13.8569 23.0056 13.8569L23.005 13.857Z" fill="#118B64"/>
</svg>
