<svg width="24" height="24" viewBox="0 0 24 24" fill="none" xmlns="http://www.w3.org/2000/svg">
<path fill-rule="evenodd" clip-rule="evenodd" d="M19.1391 1.82782C18.9749 1.90736 18.9404 2.06415 18.9404 2.73277V3.36801H18.5483C18.0826 3.36801 17.8687 3.46171 17.7166 3.73241L17.6201 3.90396L17.6203 8.51879C17.6205 13.0434 17.6222 13.1365 17.711 13.282C17.8686 13.5405 18.0415 13.6113 18.5161 13.6115L18.934 13.6117L18.9486 14.3215C18.9627 15.004 18.9673 15.0346 19.0707 15.1182C19.2079 15.2292 19.4014 15.2292 19.5386 15.1182C19.6411 15.0354 19.6472 14.9986 19.6689 14.3329L19.6916 13.6344L20.1325 13.6117C20.6449 13.5852 20.7684 13.5216 20.9331 13.1993L21.0364 12.9971L21.0242 8.44431C21.0106 3.38071 21.0331 3.73059 20.7053 3.49681C20.5791 3.4068 20.4895 3.38841 20.1128 3.37511L19.6689 3.3595V2.67877C19.6689 2.01672 19.6658 1.995 19.5571 1.88632C19.4395 1.76873 19.3011 1.74933 19.1391 1.82782ZM18.3486 8.48984V12.8832H19.3274H20.3063V8.48984V4.09645H19.3274H18.3486V8.48984ZM9.61798 4.2578C9.5445 4.28867 9.47107 4.34863 9.45481 4.39106C9.43851 4.43344 9.42522 4.76106 9.42522 5.11913V5.77008L9.00241 5.78861C8.49323 5.81087 8.29906 5.90653 8.15369 6.20678C8.06026 6.39977 8.0594 6.44288 8.0594 10.9303V15.459L8.16184 15.6621C8.31103 15.958 8.55465 16.0701 9.04789 16.0701H9.42522V16.7333C9.42522 17.098 9.44493 17.4332 9.46902 17.4783C9.54318 17.6168 9.7608 17.6823 9.9099 17.6108C10.1178 17.5111 10.1522 17.3824 10.153 16.7016L10.1537 16.081L10.5808 16.0623C10.9649 16.0455 11.025 16.0306 11.1775 15.9143C11.4933 15.6734 11.4765 15.9699 11.4632 10.8686L11.4512 6.259L11.3452 6.11035C11.1854 5.8864 11.0035 5.81256 10.5561 5.79007L10.1618 5.77022L10.1463 5.09737C10.1332 4.52591 10.1185 4.41082 10.0485 4.33356C9.94136 4.21528 9.78466 4.18769 9.61798 4.2578ZM8.78784 10.9256V15.3417H9.76667H10.7455V10.9256V6.5094H9.76667H8.78784V10.9256ZM14.3106 6.8468L14.1828 6.95657L14.1682 7.63925L14.1536 8.32193L13.7276 8.33759C13.2688 8.35444 13.1525 8.40411 12.9564 8.66671C12.863 8.79177 12.8625 8.81677 12.8625 13.467V18.1416L12.9686 18.2903C13.1287 18.5148 13.3099 18.5881 13.7617 18.6108L14.1601 18.6308V19.2103C14.1601 19.8199 14.2063 20.0494 14.3439 20.123C14.4888 20.2006 14.6847 20.1738 14.7895 20.0623C14.8818 19.964 14.8885 19.9119 14.8885 19.2945V18.6321L15.3164 18.6097C15.8294 18.5829 16.0163 18.4907 16.16 18.1939C16.2535 18.0009 16.2543 17.9578 16.2543 13.4703V8.94165L16.1519 8.73869C15.997 8.43188 15.7853 8.33218 15.2869 8.33122L14.8885 8.33049V7.64553C14.8885 6.97897 14.8855 6.95752 14.7767 6.84881C14.6353 6.70731 14.4737 6.70662 14.3106 6.8468ZM4.75434 8.83589C4.67959 8.91834 4.66447 9.02661 4.64485 9.62124L4.62208 10.3109L4.18124 10.3337C3.66879 10.3601 3.54527 10.4238 3.3806 10.7461L3.27734 10.9483L3.28954 15.501C3.30166 20.0017 3.30284 20.0556 3.3954 20.2131C3.55069 20.4775 3.78065 20.5757 4.24648 20.5766L4.64485 20.5773V21.2552C4.64485 22.013 4.67444 22.0999 4.95034 22.1532C5.07262 22.1769 5.11906 22.1589 5.23488 22.0431L5.37329 21.9047V21.2454V20.5861L5.80256 20.5704C6.27678 20.5529 6.39729 20.4984 6.59114 20.2136L6.69358 20.0631L6.6934 15.4374C6.69326 10.902 6.69148 10.8088 6.60275 10.6634C6.44514 10.4049 6.27218 10.3341 5.7976 10.3339L5.37971 10.3337L5.36509 9.62388C5.35107 8.94133 5.34638 8.91074 5.24303 8.82715C5.09866 8.71042 4.86434 8.71461 4.75434 8.83589ZM13.5682 13.4751V17.8912H14.547H15.5259V13.4751V9.05893H14.547H13.5682V13.4751ZM4.00747 15.4555V19.8489H4.9863H5.96514V15.4555V11.0621H4.9863H4.00747V15.4555Z" fill="black"/>
<rect x="3.91992" y="10.8896" width="2.26758" height="9.22681" fill="black"/>
<rect x="8.64844" y="6.27637" width="2.26758" height="9.22681" fill="black"/>
<rect x="13.377" y="8.95874" width="2.26758" height="9.22681" fill="black"/>
<rect x="18.3398" y="3.86206" width="2.26758" height="9.22681" fill="black"/>
</svg>
