<svg width="22" height="22" viewBox="0 0 22 22" fill="none" xmlns="http://www.w3.org/2000/svg">
<g clip-path="url(#clip0_4384_7188)">
<path d="M6.65251 0.815155H15.4386C18.7856 0.815155 21.5051 3.53465 21.5051 6.88172V15.6678C21.5051 17.2767 20.866 18.8198 19.7283 19.9575C18.5906 21.0952 17.0475 21.7344 15.4386 21.7344H6.65251C3.30543 21.7344 0.585938 19.0149 0.585938 15.6678V6.88172C0.585938 5.27277 1.22509 3.72971 2.36279 2.59201C3.5005 1.45431 5.04355 0.815155 6.65251 0.815155ZM6.44332 2.90708C5.44465 2.90708 4.4869 3.30379 3.78074 4.00995C3.07457 4.71611 2.67786 5.67387 2.67786 6.67253V15.877C2.67786 17.9584 4.36185 19.6424 6.44332 19.6424H15.6478C16.6464 19.6424 17.6042 19.2457 18.3103 18.5396C19.0165 17.8334 19.4132 16.8756 19.4132 15.877V6.67253C19.4132 4.59107 17.7292 2.90708 15.6478 2.90708H6.44332ZM16.5368 4.47602C16.8836 4.47602 17.2161 4.61377 17.4613 4.85896C17.7065 5.10415 17.8443 5.43671 17.8443 5.78347C17.8443 6.13022 17.7065 6.46278 17.4613 6.70797C17.2161 6.95317 16.8836 7.09092 16.5368 7.09092C16.1901 7.09092 15.8575 6.95317 15.6123 6.70797C15.3671 6.46278 15.2294 6.13022 15.2294 5.78347C15.2294 5.43671 15.3671 5.10415 15.6123 4.85896C15.8575 4.61377 16.1901 4.47602 16.5368 4.47602ZM11.0455 6.04496C12.4326 6.04496 13.7628 6.59595 14.7436 7.57673C15.7243 8.55751 16.2753 9.88773 16.2753 11.2748C16.2753 12.6618 15.7243 13.992 14.7436 14.9728C13.7628 15.9536 12.4326 16.5046 11.0455 16.5046C9.65851 16.5046 8.32829 15.9536 7.34751 14.9728C6.36673 13.992 5.81574 12.6618 5.81574 11.2748C5.81574 9.88773 6.36673 8.55751 7.34751 7.57673C8.32829 6.59595 9.65851 6.04496 11.0455 6.04496ZM11.0455 8.13688C10.2133 8.13688 9.41519 8.46747 8.82672 9.05594C8.23826 9.64441 7.90766 10.4425 7.90766 11.2748C7.90766 12.107 8.23826 12.9051 8.82672 13.4936C9.41519 14.082 10.2133 14.4126 11.0455 14.4126C11.8778 14.4126 12.6759 14.082 13.2644 13.4936C13.8528 12.9051 14.1834 12.107 14.1834 11.2748C14.1834 10.4425 13.8528 9.64441 13.2644 9.05594C12.6759 8.46747 11.8778 8.13688 11.0455 8.13688Z" fill="white"/>
</g>
<defs>
<clipPath id="clip0_4384_7188">
<rect width="20.92" height="20.92" fill="white" transform="translate(0.585938 0.815155)"/>
</clipPath>
</defs>
</svg>
