<svg width="50" height="50" viewBox="0 0 50 50" fill="none" xmlns="http://www.w3.org/2000/svg">
<path d="M12.7558 27.3186V23.2493H29.033L21.9117 16.1281L24.8009 13.2389L36.846 25.284L24.8009 37.3291L21.9117 34.4399L29.033 27.3186H12.7558ZM45.3101 25.284C45.3101 30.6802 43.1665 35.8554 39.3508 39.6711C35.5351 43.4868 30.3599 45.6304 24.9637 45.6304C22.2917 45.6304 19.646 45.1042 17.1774 44.0817C14.7089 43.0592 12.4659 41.5605 10.5765 39.6711C6.76083 35.8554 4.61719 30.6802 4.61719 25.284C4.61719 19.8878 6.76083 14.7125 10.5765 10.8968C14.3922 7.08114 19.5674 4.9375 24.9637 4.9375C27.6356 4.9375 30.2814 5.46378 32.7499 6.48628C35.2185 7.50879 37.4614 9.0075 39.3508 10.8968C41.2401 12.7862 42.7388 15.0292 43.7614 17.4977C44.7839 19.9663 45.3101 22.612 45.3101 25.284ZM41.2408 25.284C41.2408 20.967 39.5259 16.8268 36.4734 13.7743C33.4208 10.7217 29.2806 9.00679 24.9637 9.00679C20.6467 9.00679 16.5065 10.7217 13.454 13.7743C10.4014 16.8268 8.68648 20.967 8.68648 25.284C8.68648 29.601 10.4014 33.7411 13.454 36.7937C16.5065 39.8462 20.6467 41.5612 24.9637 41.5612C29.2806 41.5612 33.4208 39.8462 36.4734 36.7937C39.5259 33.7411 41.2408 29.601 41.2408 25.284Z" fill="black"/>
</svg>
