<svg width="24" height="24" viewBox="0 0 24 24" fill="none" xmlns="http://www.w3.org/2000/svg">
<g clip-path="url(#clip0_3921_7289)">
<path fill-rule="evenodd" clip-rule="evenodd" d="M1.7017 3.25009C1.22316 3.36623 0.862586 3.66885 0.641687 4.13979C0.541755 4.3529 0.523862 4.45265 0.527004 4.77927C0.531556 5.24733 0.628256 5.49587 0.932288 5.82089C1.23983 6.14968 1.60587 6.30452 2.0712 6.3027C2.37127 6.30147 2.48354 6.27898 2.70858 6.17504C3.26948 5.91586 3.60934 5.37845 3.6057 4.7565C3.60142 4.02128 3.15015 3.44217 2.43678 3.25638C2.12133 3.1742 2.01802 3.17333 1.7017 3.25009ZM6.69222 3.5742C5.93688 3.80967 5.66181 4.81214 6.18482 5.4232C6.27333 5.52655 6.44929 5.6594 6.57586 5.71831L6.80604 5.82548L14.8221 5.82594C23.748 5.82644 23.0877 5.85039 23.435 5.51339C23.6949 5.26117 23.7857 5.04146 23.7855 4.66545C23.7853 4.20485 23.5701 3.85265 23.1504 3.62569L22.9683 3.52726L14.9327 3.5188C8.14746 3.51165 6.86523 3.52025 6.69222 3.5742ZM1.63869 10.4672C1.2136 10.597 0.831809 10.9275 0.643827 11.3285C0.543075 11.5434 0.52327 11.6491 0.52327 11.9726C0.52327 12.2961 0.543075 12.4018 0.643827 12.6167C0.897733 13.1583 1.37568 13.4777 1.98015 13.51C2.43624 13.5342 2.7639 13.4231 3.08368 13.1356C4.15093 12.176 3.482 10.4103 2.05809 10.4286C1.89005 10.4307 1.70129 10.4481 1.63869 10.4672ZM6.86992 10.8345C6.75483 10.8543 6.60117 10.9016 6.52846 10.9397C6.33807 11.0395 6.07069 11.3307 5.98878 11.5272C5.89213 11.7592 5.8995 12.223 6.00344 12.4506C6.10861 12.6809 6.44114 12.9887 6.67329 13.0706C6.82243 13.1232 8.16485 13.1335 14.8871 13.1335H22.9227L23.1571 13.0099C24.0185 12.5556 24.0185 11.3896 23.1571 10.9353L22.9227 10.8116L15.001 10.8052C10.644 10.8016 6.98501 10.8148 6.86992 10.8345ZM1.66145 17.6789C1.17845 17.8398 0.811367 18.154 0.627255 18.564C0.477515 18.8976 0.484845 19.471 0.643235 19.8088C0.880432 20.3146 1.27042 20.615 1.82116 20.7163C2.19772 20.7856 2.60118 20.6938 2.94023 20.4617C3.37456 20.1644 3.60256 19.7283 3.6057 19.1887C3.61062 18.3501 2.99504 17.6933 2.15269 17.6384C1.96303 17.626 1.77318 17.6417 1.66145 17.6789ZM6.57586 18.2269C5.6313 18.6667 5.72445 20.0839 6.71699 20.3744C6.91636 20.4328 8.00278 20.4401 14.9574 20.4298L22.9683 20.4179L23.1504 20.3195C23.5701 20.0925 23.7853 19.7403 23.7855 19.2797C23.7857 18.9037 23.6949 18.684 23.435 18.4318C23.0877 18.0948 23.748 18.1187 14.8221 18.1192L6.80604 18.1197L6.57586 18.2269Z" fill="black"/>
</g>
<defs>
<clipPath id="clip0_3921_7289">
<rect width="23.31" height="23.31" fill="white" transform="translate(0.501953 0.317627)"/>
</clipPath>
</defs>
</svg>
