<svg width="23" height="22" viewBox="0 0 23 22" fill="none" xmlns="http://www.w3.org/2000/svg">
<path fill-rule="evenodd" clip-rule="evenodd" d="M5.71535 1.50138C7.0281 0.74519 8.57254 0.247727 10.0898 0.0924551C10.6533 0.0347631 12.1287 0.0710995 12.708 0.156841C15.9333 0.634405 18.7926 2.5224 20.4783 5.28761C22.1535 8.03551 22.529 11.3558 21.5127 14.4334C21.1459 15.5443 20.3892 16.9349 19.6481 17.8601C19.2924 18.3043 18.4601 19.1326 18.0128 19.4877C16.786 20.4615 15.3476 21.1808 13.8675 21.5606C12.8596 21.8193 12.3625 21.8774 11.1599 21.8774C9.95587 21.8774 9.46137 21.8194 8.44568 21.5591C4.18576 20.4673 1.02882 16.9651 0.339562 12.5665C0.223131 11.8237 0.222675 10.1112 0.338651 9.3791C0.870948 6.01889 2.81326 3.17313 5.71535 1.50138ZM7.10214 2.42254C8.01593 1.98714 9.13102 1.66967 10.1581 1.55242C10.6558 1.49564 11.5357 1.4945 12.0771 1.54992C16.5974 2.01278 20.1297 5.54478 20.5836 10.0556C20.7501 11.71 20.4446 13.4761 19.73 14.9911C19.5059 15.466 19.055 16.2548 19.0076 16.2548C18.9946 16.2548 18.7859 16.0779 18.5439 15.8616C17.1569 14.6225 15.5986 13.773 13.9257 13.3442C13.4872 13.2318 13.0479 13.1463 12.6094 13.0872C12.6094 13.0875 12.6094 13.0879 12.6094 13.0882C12.6096 13.7087 12.5846 14.3058 12.5541 14.4152C12.5234 14.5245 12.3927 14.7343 12.2635 14.8815C11.5505 15.6935 10.3595 15.5497 9.8686 14.5923C9.74029 14.3421 9.72791 14.1915 9.74802 13.0774C7.57422 13.3595 5.51281 14.3047 3.77586 15.8606C3.53384 16.0774 3.32516 16.2548 3.31218 16.2548C3.2992 16.2548 3.18391 16.0815 3.05601 15.8698C2.01586 14.1478 1.52132 11.965 1.73496 10.0393C2.10825 6.67467 4.09487 3.85537 7.10214 2.42254ZM12.6084 12.7304C12.6035 12.0186 12.5759 11.8975 12.4423 11.647C12.0797 10.967 11.1963 10.7038 10.4748 11.0609C10.2906 11.1521 10.0789 11.3388 9.96533 11.5101C9.79445 11.7681 9.77328 11.828 9.75438 12.7426C9.09485 12.5183 8.48277 12.1339 7.98032 11.5967C7.47525 11.0568 7.14117 10.4554 6.93667 9.7178C6.82812 9.32643 6.81364 9.19456 6.81532 8.61313C6.81751 7.87416 6.89774 7.46535 7.15738 6.87099C7.75715 5.49804 9.02337 4.53112 10.5452 4.284C10.6704 4.26369 11.0187 4.25495 11.3193 4.26456C12.4808 4.30185 13.5258 4.7678 14.3084 5.59744C14.6737 5.98471 14.831 6.20919 15.0676 6.68066C15.7553 8.05151 15.6616 9.69148 14.821 10.9931C14.5487 11.4148 13.9615 12.002 13.5399 12.2743C13.2429 12.4661 12.9301 12.6178 12.6084 12.7304ZM10.6445 7.15665C10.2292 7.3036 9.84837 7.73818 9.74028 8.18878C9.42026 9.52274 10.955 10.5186 12.0518 9.68868C12.7287 9.17651 12.8237 8.2211 12.2615 7.58076C11.8347 7.09464 11.2519 6.9418 10.6445 7.15665Z" fill="black"/>
</svg>
