<svg width="24" height="24" viewBox="0 0 24 24" fill="none" xmlns="http://www.w3.org/2000/svg">
<g clip-path="url(#clip0_3925_7344)">
<path fill-rule="evenodd" clip-rule="evenodd" d="M9.68992 1.61564C8.71113 1.73419 8.5598 1.79893 8.5598 2.09923C8.5598 2.2349 8.58502 2.28976 8.67434 2.34831C8.7974 2.4289 8.76654 2.43022 9.76627 2.30247C11.6097 2.06691 13.5305 2.39261 15.2296 3.22881C18.2194 4.7003 20.2188 7.53588 20.6234 10.8788C20.6897 11.4266 20.6796 12.6395 20.6041 13.2019C20.4506 14.345 20.1901 15.21 19.6923 16.2295C19.1679 17.3035 18.6161 18.074 17.7673 18.9177C16.0485 20.6261 13.7405 21.6184 11.291 21.7024C8.51441 21.7975 6.00731 20.8108 4.04822 18.8517C3.1695 17.9729 2.52091 17.0429 2.0477 15.9829C0.365193 12.2141 1.2003 7.84587 4.15116 4.97979C4.98672 4.16822 6.03785 3.46191 7.05052 3.03163C7.5867 2.80377 7.69478 2.72118 7.69478 2.53939C7.69478 2.39457 7.51859 2.18428 7.3973 2.18428C7.20618 2.18428 6.17476 2.66454 5.51629 3.06013C4.61089 3.60414 3.50594 4.56681 2.83769 5.39395C1.66896 6.84059 0.900367 8.59143 0.608583 10.4719C0.496039 11.1971 0.496039 12.7482 0.608583 13.4734C0.971754 15.8139 2.0034 17.817 3.69461 19.4653C5.37051 21.0987 7.57627 22.1216 9.91906 22.352C10.5403 22.4132 13.7794 22.4117 14.4135 22.3501C16.7321 22.1246 18.9179 21.1095 20.6078 19.4733C22.025 18.1011 22.9943 16.4501 23.4678 14.6022C23.6328 13.9581 23.7659 13.1635 23.7659 12.8232C23.7659 12.7089 23.7864 12.6028 23.8115 12.5873C23.8383 12.5707 23.857 12.2976 23.857 11.9218C23.857 11.5084 23.841 11.2943 23.8115 11.3125C23.7836 11.3297 23.7659 11.258 23.7659 11.1275C23.7659 10.7822 23.6337 9.99099 23.4678 9.34313C22.6016 5.96209 19.9848 3.16708 16.6637 2.07551C15.9731 1.84856 15.0971 1.66244 14.3939 1.59329C13.714 1.52641 10.2924 1.54266 9.68992 1.61564ZM15.6165 2.65166C15.9295 2.80973 16.3348 3.03559 16.5171 3.15355L16.8486 3.36799L17.4049 3.36594L17.9612 3.36389L17.7563 3.25385C17.3764 3.04984 16.3959 2.68298 15.8792 2.55145C15.0234 2.33365 15.0026 2.34157 15.6165 2.65166ZM18.3245 4.61999L18.8911 5.18908L19.6326 5.18772L20.3741 5.1863L20.0327 4.85632C19.8449 4.67485 19.5499 4.4194 19.3771 4.28864L19.063 4.0509H18.4105H17.7579L18.3245 4.61999ZM19.4408 5.89321C19.4408 5.90486 19.5504 6.0841 19.6842 6.29157C19.8181 6.49899 19.9755 6.75577 20.0341 6.86221L20.1405 7.0557H20.9516C21.3977 7.0557 21.7627 7.0384 21.7627 7.01723C21.7627 6.96283 21.4235 6.44422 21.1848 6.13377L20.9834 5.87199H20.2122C19.7879 5.87199 19.4408 5.88155 19.4408 5.89321ZM20.5109 7.81728C20.5293 7.86163 20.6276 8.11822 20.7295 8.38738L20.9146 8.8768H21.7712C22.2423 8.8768 22.6265 8.86141 22.6249 8.84265C22.6233 8.82389 22.5254 8.5729 22.4073 8.28494L22.1926 7.76138L21.335 7.74899C20.5293 7.73729 20.4794 7.74143 20.5109 7.81728ZM21.1853 10.0719C21.2337 10.3536 21.2803 10.6097 21.2889 10.641C21.3008 10.684 21.5166 10.6979 22.1711 10.6979C22.8336 10.6979 23.0376 10.6845 23.0379 10.641C23.0381 10.6097 22.9949 10.3536 22.9419 10.0719L22.8455 9.55971H21.9715H21.0974L21.1853 10.0719ZM0.519531 11.9727C0.519531 12.3357 0.526634 12.4843 0.535284 12.3027C0.543888 12.1212 0.543888 11.8241 0.535284 11.6426C0.526634 11.461 0.519531 11.6096 0.519531 11.9727ZM21.353 11.9727V12.5665L22.2294 12.5541L23.1058 12.5417V11.9727V11.4036L22.2294 11.3912L21.353 11.3788V11.9727ZM21.2889 13.3043C21.2803 13.3357 21.2337 13.5917 21.1853 13.8734L21.0974 14.3856H21.9715H22.8455L22.9419 13.8734C22.9949 13.5917 23.0381 13.3357 23.0379 13.3043C23.0376 13.2608 22.8336 13.2474 22.1711 13.2474C21.5166 13.2474 21.3008 13.2614 21.2889 13.3043ZM20.7295 15.5579C20.6276 15.8271 20.5293 16.0837 20.5109 16.128C20.4794 16.2039 20.5293 16.208 21.335 16.1963L22.1926 16.1839L22.4073 15.6604C22.5254 15.3724 22.6233 15.1215 22.6249 15.1027C22.6265 15.0839 22.2423 15.0685 21.7712 15.0685H20.9146L20.7295 15.5579ZM20.0341 17.0831C19.9755 17.1895 19.8181 17.4463 19.6842 17.6537C19.5504 17.8612 19.4408 18.0404 19.4408 18.0521C19.4408 18.0638 19.7879 18.0733 20.2122 18.0733H20.9834L21.1848 17.8115C21.4235 17.5011 21.7627 16.9825 21.7627 16.9281C21.7627 16.9069 21.3977 16.8896 20.9516 16.8896H20.1405L20.0341 17.0831ZM18.3149 19.3285L17.758 19.8944H18.4105H19.063L19.3771 19.6567C19.5499 19.5259 19.8449 19.2705 20.0327 19.089L20.3741 18.759L19.6229 18.7608L18.8717 18.7626L18.3149 19.3285ZM16.5043 20.7923C16.329 20.9085 15.9305 21.1329 15.6186 21.2912C15.3068 21.4494 15.0744 21.5789 15.1023 21.5789C15.1302 21.5789 15.4263 21.5101 15.7604 21.426C16.3544 21.2763 17.3481 20.9106 17.7563 20.6915L17.9612 20.5814L17.3921 20.5813L16.823 20.5812L16.5043 20.7923Z" fill="black"/>
<path d="M20.3125 12.0372C20.3125 17.2076 16.1433 21.3945 11.0059 21.3945C5.86837 21.3945 1.69922 17.2076 1.69922 12.0372C1.69922 6.86691 5.86837 2.67993 11.0059 2.67993C16.1433 2.67993 20.3125 6.86691 20.3125 12.0372Z" stroke="black"/>
</g>
<defs>
<clipPath id="clip0_3925_7344">
<rect width="23.31" height="23.31" fill="white" transform="translate(0.501953 0.317627)"/>
</clipPath>
</defs>
</svg>
