<svg width="24" height="24" viewBox="0 0 24 24" fill="none" xmlns="http://www.w3.org/2000/svg">
<g clip-path="url(#clip0_3912_7160)">
<path fill-rule="evenodd" clip-rule="evenodd" d="M11.1111 0.362348C8.19553 0.653814 5.56614 1.94879 3.61338 4.05503C2.01164 5.7827 1.01086 7.86603 0.630158 10.2654C0.487521 11.1643 0.487703 12.8065 0.630522 13.6879C1.06813 16.3884 2.29937 18.7177 4.24052 20.5175C5.96819 22.1192 8.05152 23.12 10.4509 23.5007C11.3498 23.6433 12.992 23.6432 13.8734 23.5003C16.8897 23.0116 19.4482 21.527 21.3083 19.1863C22.5426 17.6331 23.3658 15.7339 23.6755 13.7255C23.7256 13.4 23.7669 13.0273 23.7672 12.8973C23.7674 12.7673 23.7881 12.6483 23.8132 12.6328C23.8403 12.6161 23.8587 12.3279 23.8587 11.9218C23.8587 11.4781 23.8428 11.2487 23.8132 11.267C23.785 11.2844 23.7675 11.2029 23.7672 11.0534C23.7669 10.9205 23.7266 10.5519 23.6776 10.2343C23.2228 7.28838 21.7061 4.67766 19.3718 2.8226C17.8202 1.58963 15.9355 0.772003 13.911 0.453585C13.2392 0.347916 11.7431 0.299201 11.1111 0.362348ZM11.3615 2.16678C8.88272 2.42692 6.90624 3.34621 5.22227 5.02225C3.70995 6.52748 2.76188 8.39469 2.43067 10.5202C2.31886 11.2378 2.31886 12.7076 2.43067 13.4252C2.76102 15.5453 3.69428 17.388 5.20775 18.9086C6.71298 20.4209 8.58019 21.369 10.7057 21.7002C11.4233 21.812 12.8931 21.812 13.6107 21.7002C15.7308 21.3698 17.5735 20.4366 19.0941 18.9231C20.6064 17.4179 21.5545 15.5507 21.8857 13.4252C21.9975 12.7076 21.9975 11.2378 21.8857 10.5202C21.5553 8.40011 20.6221 6.55739 19.1086 5.03678C17.6164 3.53752 15.7319 2.57511 13.6597 2.25396C13.2004 2.18276 11.7376 2.12726 11.3615 2.16678ZM11.2895 6.28222C9.73927 6.66365 8.62562 8.00439 8.53152 9.60267C8.51117 9.94854 8.5205 10.0149 8.61474 10.1945C8.67311 10.3057 8.79958 10.4594 8.89583 10.5359C9.05727 10.6644 9.09824 10.6752 9.42654 10.6752C9.75484 10.6752 9.79581 10.6644 9.95725 10.5359C10.1756 10.3622 10.3371 10.0536 10.3371 9.81005C10.3371 9.13656 10.76 8.47696 11.3842 8.17684C11.6578 8.04532 11.7162 8.03457 12.1582 8.03457C12.5998 8.03457 12.6588 8.04541 12.9321 8.17662C13.6589 8.5254 14.0783 9.31735 13.9458 10.0907C13.8049 10.9136 13.1734 11.5079 12.329 11.6122C11.8348 11.6733 11.7798 11.6908 11.5914 11.8461C11.2633 12.1165 11.2498 12.1891 11.2486 13.6817C11.2477 14.9639 11.2507 15.0098 11.3501 15.2042C11.4064 15.3145 11.5312 15.4674 11.6275 15.5439C11.7889 15.6724 11.8299 15.6832 12.1582 15.6832C12.4865 15.6832 12.5275 15.6724 12.6889 15.5439C12.7851 15.4674 12.9099 15.3145 12.9663 15.2042C13.0615 15.0179 13.0687 14.9448 13.0687 14.1697C13.0687 13.4151 13.0763 13.3333 13.1484 13.3111C14.2124 12.9824 15.0079 12.2988 15.4559 11.328C15.7101 10.7773 15.773 10.4762 15.773 9.81014C15.773 9.14403 15.7101 8.843 15.4559 8.29226C14.9816 7.26439 14.1032 6.5431 13.0056 6.2799C12.5198 6.16344 11.7682 6.16444 11.2895 6.28222ZM0.521484 11.9727C0.521484 12.3608 0.528496 12.5196 0.537009 12.3255C0.545568 12.1315 0.545568 11.8139 0.537009 11.6198C0.528496 11.4258 0.521484 11.5846 0.521484 11.9727ZM11.7221 16.4989C11.5139 16.5896 11.2552 16.8337 11.1439 17.0447C11.0063 17.3053 11.0063 17.7943 11.1439 18.0549C11.2581 18.2713 11.5177 18.513 11.7323 18.6026C11.925 18.6831 12.3914 18.6831 12.5841 18.6026C12.7987 18.513 13.0583 18.2713 13.1725 18.0549C13.2462 17.9152 13.2709 17.7886 13.2709 17.5498C13.2709 17.311 13.2462 17.1843 13.1725 17.0447C13.0583 16.8283 12.7987 16.5866 12.5841 16.497C12.3946 16.4178 11.9059 16.4189 11.7221 16.4989Z" fill="#040404"/>
</g>
<defs>
<clipPath id="clip0_3912_7160">
<rect width="23.31" height="23.31" fill="white" transform="translate(0.501953 0.317627)"/>
</clipPath>
</defs>
</svg>
