<svg width="24" height="24" viewBox="0 0 24 24" fill="none" xmlns="http://www.w3.org/2000/svg">
<g clip-path="url(#clip0_3912_7155)">
<path fill-rule="evenodd" clip-rule="evenodd" d="M11.0898 1.09246C9.57254 1.24773 8.0281 1.74519 6.71535 2.50138C3.81326 4.17313 1.87095 7.01889 1.33865 10.3791C1.22268 11.1112 1.22313 12.8237 1.33956 13.5665C2.02882 17.9651 5.18576 21.4673 9.44568 22.5591C10.4614 22.8194 10.9559 22.8774 12.1599 22.8774C13.3625 22.8774 13.8596 22.8193 14.8675 22.5606C16.3476 22.1808 17.786 21.4615 19.0128 20.4877C19.4601 20.1326 20.2924 19.3043 20.6481 18.8601C21.3892 17.9349 22.1459 16.5443 22.5127 15.4334C23.529 12.3558 23.1535 9.03551 21.4783 6.28761C19.7926 3.5224 16.9333 1.63441 13.708 1.15684C13.1287 1.0711 11.6533 1.03476 11.0898 1.09246ZM11.1581 2.55242C10.131 2.66967 9.01593 2.98714 8.10214 3.42254C5.09487 4.85537 3.10825 7.67467 2.73496 11.0393C2.52132 12.965 3.01586 15.1478 4.05601 16.8698C4.18391 17.0815 4.2992 17.2548 4.31218 17.2548C4.32516 17.2548 4.53384 17.0774 4.77586 16.8606C7.60409 14.3272 11.2926 13.4128 14.9257 14.3442C16.5986 14.773 18.1569 15.6225 19.5439 16.8616C19.7859 17.0779 19.9946 17.2548 20.0076 17.2548C20.055 17.2548 20.5059 16.466 20.73 15.9911C21.4446 14.4761 21.7501 12.71 21.5836 11.0556C21.1297 6.54478 17.5974 3.01278 13.0771 2.54992C12.5357 2.4945 11.6558 2.49564 11.1581 2.55242ZM11.5452 4.00092C10.0234 4.24803 8.75715 5.21495 8.15738 6.58791C7.89774 7.18227 7.81751 7.59107 7.81532 8.33005C7.81364 8.91148 7.82812 9.04335 7.93667 9.43471C8.14117 10.1723 8.47525 10.7737 8.98032 11.3136C10.4208 12.8536 12.7624 13.1389 14.5399 11.9912C14.9615 11.7189 15.5487 11.1317 15.821 10.71C16.6616 9.4084 16.7553 7.76843 16.0676 6.39757C15.831 5.92611 15.6737 5.70163 15.3084 5.31436C14.5258 4.48472 13.4808 4.01877 12.3193 3.98147C12.0187 3.97187 11.6704 3.98061 11.5452 4.00092Z" fill="white"/>
</g>
<defs>
<clipPath id="clip0_3912_7155">
<rect width="23.3136" height="23.3136" fill="white" transform="translate(0.501953 0.315918)"/>
</clipPath>
</defs>
</svg>
