<svg width="30" height="23" viewBox="0 0 30 23" fill="none" xmlns="http://www.w3.org/2000/svg">
<path d="M26.476 0.236328H3.26994C1.49296 0.236328 0.046875 1.6879 0.046875 3.47162V19.001C0.046875 20.7848 1.49296 22.2363 3.26994 22.2363H26.476C28.253 22.2363 29.699 20.7848 29.699 19.001V3.47162C29.699 1.6879 28.253 0.236328 26.476 0.236328ZM18.6664 11.2351L28.1747 2.56266C28.32 2.8354 28.4104 3.14183 28.4104 3.47212V19.0015C28.4104 19.3318 28.32 19.6382 28.1747 19.911L18.6664 11.2361V11.2351ZM26.476 1.53045C26.7407 1.53045 26.9928 1.58461 27.2228 1.68162L16.1723 11.7616C15.4427 12.4296 14.3017 12.4293 13.5729 11.7599L2.52305 1.68116C2.75303 1.58416 3.00507 1.52999 3.26981 1.52999L26.476 1.53045ZM1.57184 19.9106C1.42652 19.6379 1.33611 19.3314 1.33611 19.0012V3.47175C1.33611 3.14147 1.42652 2.83504 1.57184 2.56229L11.0802 11.2347L1.57184 19.9096V19.9106ZM3.26994 20.9423C3.00519 20.9423 2.75314 20.8882 2.52317 20.7912L12.0383 12.1095L12.7037 12.7168C13.3122 13.2755 14.0927 13.5543 14.8733 13.5543C15.6542 13.5543 16.4328 13.2758 17.04 12.7185L17.7074 12.1098L27.2225 20.7914C26.9925 20.8885 26.7405 20.9426 26.4757 20.9426H3.26969L3.26994 20.9423Z" fill="#118B64"/>
</svg>
