<svg width="20" height="25" viewBox="0 0 20 25" fill="none" xmlns="http://www.w3.org/2000/svg">
<path d="M12.3718 14.9156C12.6191 15.1128 12.6603 15.472 12.4639 15.7196C11.0173 17.5574 8.71176 17.5574 7.27646 15.7196C7.08965 15.4717 7.13391 15.1205 7.37707 14.9267C7.61997 14.7326 7.97353 14.7659 8.17577 15.0018C8.54039 15.5884 9.18369 15.9452 9.87608 15.9452C10.5685 15.9452 11.2118 15.5884 11.5764 15.0018C11.775 14.7646 12.1265 14.7264 12.3717 14.9156H12.3718ZM9.86457 13.3651C3.16137 13.101 3.15544 3.55035 9.86457 3.2806C11.6724 3.2806 13.3432 4.24153 14.2471 5.80155C15.1514 7.36164 15.1514 9.2837 14.2471 10.8437C13.3432 12.4038 11.6724 13.3649 9.86457 13.3649V13.3651ZM13.7724 8.3229C13.5879 3.15433 6.14105 3.15433 5.95661 8.3229C5.95661 9.71398 6.7013 10.9992 7.91039 11.6948C9.11949 12.3904 10.6094 12.3904 11.8185 11.6948C13.0276 10.9992 13.7723 9.71398 13.7723 8.3229H13.7724ZM14.5562 13.6407H14.5564C14.3143 13.4281 13.9453 13.4515 13.732 13.6924C13.5189 13.9334 13.5421 14.3011 13.7839 14.5136C15.8129 16.3457 17.2767 19.441 17.8475 23.0879H1.88126C2.45765 19.4412 3.91587 16.3454 5.94482 14.5136C6.06859 14.4147 6.14604 14.2691 6.15839 14.1114C6.171 13.9537 6.11773 13.7976 6.0112 13.6804C5.90467 13.5632 5.75415 13.4948 5.59538 13.4917C5.43662 13.4886 5.28377 13.5507 5.17235 13.6638C2.82643 15.783 1.1721 19.4066 0.647691 23.5874C0.626076 23.7523 0.677025 23.9181 0.787671 24.0427C0.89806 24.1671 1.05734 24.2378 1.22408 24.2363H18.5097C18.6765 24.2378 18.8357 24.1671 18.9461 24.0427C19.0568 23.9181 19.1077 23.7523 19.0861 23.5874C18.5558 19.3951 16.9015 15.7771 14.5559 13.6578L14.5562 13.6407ZM19.6631 8.7249C19.8303 10.2237 18.9482 11.5676 17.3575 11.5963H16.7811C16.4628 11.5963 16.2048 11.3392 16.2048 11.022V7.66808C15.8589 -0.710587 3.87009 -0.710587 3.52426 7.66808V11.022C3.52426 11.1743 3.46353 11.3205 3.35546 11.4281C3.24739 11.5358 3.10072 11.5963 2.94787 11.5963H2.37149C0.774867 11.5676 -0.0953773 10.2237 0.0659449 8.7249C0.0651729 8.09626 0.323 7.49481 0.779478 7.06078C1.23596 6.62673 1.8507 6.39776 2.4811 6.42779C4.04894 -1.82487 15.6747 -1.83012 17.2484 6.42779H17.3578C17.9692 6.42779 18.5556 6.66981 18.9881 7.10052C19.4204 7.53124 19.6633 8.11553 19.6633 8.72493L19.6631 8.7249ZM2.37149 10.4478V7.57633C2.0658 7.57633 1.77246 7.69734 1.55631 7.91269C1.34017 8.12805 1.21872 8.42033 1.21872 8.7249V9.29919C1.21872 9.60376 1.34017 9.89577 1.55631 10.1114C1.77246 10.3267 2.0658 10.4478 2.37149 10.4478ZM18.5103 8.7249C18.5103 8.42033 18.3888 8.12805 18.1727 7.91269C17.9566 7.69734 17.6632 7.57633 17.3575 7.57633V10.4478C17.6632 10.4478 17.9566 10.3267 18.1727 10.1114C18.3888 9.89577 18.5103 9.60376 18.5103 9.29919V8.7249Z" fill="#118B64"/>
</svg>
