<svg width="20" height="20" viewBox="0 0 20 20" fill="none" xmlns="http://www.w3.org/2000/svg">
<path fill-rule="evenodd" clip-rule="evenodd" d="M7.00779 0.138397C6.65472 0.324923 6.51391 0.737446 6.68855 1.07385C6.73959 1.17214 7.0178 1.48728 7.3069 1.77415L7.83247 2.29566L7.36814 2.39979C5.00681 2.92936 2.98281 4.37262 1.70026 6.44134C0.875437 7.77174 0.414062 9.42069 0.414062 11.0382C0.414062 11.5902 0.486132 11.8311 0.695877 11.9804C1.0209 12.2119 1.39695 12.1751 1.65782 11.8863C1.84312 11.6813 1.85646 11.6127 1.88869 10.6995C1.92671 9.62179 2.15954 8.70983 2.64991 7.71747C3.01035 6.98808 3.42815 6.41065 4.03349 5.80532C4.638 5.20081 5.2151 4.78301 5.94563 4.42102C6.45135 4.17039 7.27599 3.87041 7.45915 3.87041C7.50818 3.87041 7.36404 4.04501 7.07394 4.33707C6.81899 4.59375 6.58739 4.86518 6.55925 4.9403C6.53016 5.01788 6.52074 5.16188 6.53744 5.27365C6.59458 5.65627 7.07198 5.97163 7.44016 5.86997C7.62946 5.81771 9.90223 3.55226 10.0517 3.2669C10.1733 3.03444 10.1801 2.8511 10.0742 2.6526C9.91689 2.35776 7.89689 0.26428 7.64335 0.133343C7.43078 0.023577 7.22204 0.025216 7.00779 0.138397ZM12.4675 3.16801C12.2777 3.27095 12.0992 3.65702 12.1271 3.90433C12.1556 4.15728 12.2543 4.26167 12.7381 4.55086C14.4682 5.58483 15.7281 7.25637 16.2151 9.16351C16.4205 9.96807 16.4875 10.9272 16.3923 11.7023C16.3366 12.1565 16.1278 13.0669 16.0794 13.0669C16.0609 13.0669 15.9787 12.8276 15.8969 12.5351C15.7286 11.934 15.6756 11.8339 15.4534 11.6965C15.3284 11.6193 15.2457 11.6034 15.0516 11.6195C14.7414 11.6453 14.5192 11.8056 14.4148 12.079L14.3394 12.2763L14.7526 13.8212C14.9799 14.6709 15.1999 15.4439 15.2416 15.539C15.349 15.7844 15.5762 15.9685 15.8158 16.0044C15.9823 16.0294 16.2861 15.9617 17.6501 15.5955C19.4363 15.116 19.4835 15.0952 19.5893 14.742C19.6781 14.4456 19.5211 14.0506 19.2485 13.8844C19.0402 13.7574 18.8497 13.7722 18.0254 13.9794C17.6228 14.0806 17.288 14.1574 17.2814 14.1502C17.2747 14.1428 17.3583 13.8705 17.4671 13.545C17.7786 12.6129 17.8684 12.0336 17.8695 10.9499C17.8705 10.0051 17.8247 9.61296 17.6195 8.81013C17.4157 8.01294 17.054 7.14401 16.6366 6.44931C15.9852 5.36498 15.0048 4.35022 13.9129 3.63039C13.1176 3.10601 12.7805 2.9982 12.4675 3.16801ZM1.65163 14.1204C1.5435 14.1739 1.42468 14.2641 1.38753 14.3208C1.35038 14.3775 1.12556 15.148 0.887911 16.0331C0.538762 17.3337 0.461138 17.6795 0.483264 17.8357C0.550735 18.312 1.0835 18.5794 1.53654 18.3645C1.80907 18.2352 1.89493 18.0657 2.09848 17.256C2.20224 16.8432 2.29525 16.4972 2.30518 16.4874C2.31506 16.4774 2.52148 16.6779 2.76391 16.9328C4.01887 18.2527 5.60873 19.1456 7.37975 19.525C9.48115 19.9753 11.735 19.5914 13.679 18.4522C14.0957 18.208 14.2084 18.057 14.2087 17.743C14.209 17.3269 13.9598 17.0251 13.56 16.9576C13.3991 16.9304 13.3146 16.9618 12.702 17.276C11.4831 17.9013 10.4428 18.1661 9.20771 18.1658C7.66875 18.1654 6.26182 17.7272 5.01501 16.8599C4.60454 16.5744 3.85215 15.9197 3.9117 15.8999C3.93679 15.8915 4.17216 15.9472 4.43472 16.0237C4.98965 16.1854 5.20682 16.1965 5.40823 16.0737C5.58164 15.968 5.66796 15.8421 5.74313 15.5854C5.79371 15.4126 5.78875 15.3745 5.69014 15.1757C5.63036 15.0551 5.5164 14.9134 5.43696 14.8608C5.27151 14.7514 4.48088 14.5491 3.32781 14.3213C2.88961 14.2348 2.44144 14.1322 2.33186 14.0935C2.0617 13.9979 1.88487 14.0049 1.65163 14.1204Z" fill="black"/>
</svg>
