<svg width="24" height="24" viewBox="0 0 24 24" fill="none" xmlns="http://www.w3.org/2000/svg">
<path fill-rule="evenodd" clip-rule="evenodd" d="M11.0863 0.364661C7.83797 0.692776 5.01719 2.22973 2.98412 4.77922C1.04147 7.21539 0.165428 10.5325 0.63354 13.6798C1.39016 18.7671 5.36169 22.7386 10.449 23.4952C12.6549 23.8234 14.8842 23.5117 16.9819 22.5819C19.4654 21.4811 21.6648 19.2817 22.7656 16.7982C23.3087 15.5728 23.6698 14.2066 23.7495 13.075C23.7659 12.8426 23.7968 12.6416 23.8181 12.6285C23.8393 12.6153 23.8568 12.2972 23.8568 11.9216C23.8568 11.478 23.8408 11.2486 23.8112 11.2669C23.7833 11.2841 23.7656 11.2104 23.7655 11.0761C23.7649 10.4713 23.4645 9.00352 23.1699 8.16568C21.7149 4.0277 18.187 1.1022 13.8635 0.44834C13.1795 0.344902 11.7181 0.300877 11.0863 0.364661ZM11.2002 1.91414C9.60548 2.07262 7.90244 2.67326 6.6019 3.53578C3.03192 5.90352 1.3394 10.2228 2.35188 14.3818C2.70399 15.8283 3.44608 17.3034 4.38062 18.4147C5.34357 19.5597 6.41328 20.3997 7.71732 21.0348C10.128 22.2089 12.8217 22.3902 15.3541 21.5489C17.91 20.6997 20.0269 18.8489 21.2174 16.4224C22.4077 13.9962 22.5757 11.2093 21.687 8.62992C21.4693 7.99805 20.9708 6.99121 20.592 6.4182C19.0029 4.01468 16.4818 2.41175 13.6131 1.98097C13.0177 1.8916 11.7737 1.85714 11.2002 1.91414ZM9.06602 5.21528C7.5374 5.62639 6.87543 7.35124 7.73553 8.68201C8.63638 10.0758 10.8252 9.98595 11.5994 8.52348C11.9812 7.80224 11.9829 7.06629 11.6045 6.31645C11.1703 5.45607 10.0222 4.9581 9.06602 5.21528ZM9.30627 6.73257C9.05414 6.84707 8.91214 7.05736 8.88769 7.35243C8.82742 8.07909 9.63935 8.44499 10.159 7.92534C10.4481 7.63624 10.4521 7.23078 10.1687 6.91718C9.92522 6.64766 9.63166 6.58483 9.30627 6.73257ZM16.1399 6.98206C16.0648 7.01753 14.0123 9.04099 11.5787 11.4786C7.61662 15.4474 7.15087 15.9288 7.12287 16.0839C7.01483 16.6828 7.44602 17.1139 8.04485 17.0059C8.20009 16.9779 8.68177 16.5113 12.6686 12.5274C15.9173 9.28114 17.1327 8.0388 17.1698 7.92671C17.2767 7.60251 17.1613 7.25044 16.8788 7.03956C16.7248 6.92456 16.3271 6.8936 16.1399 6.98206ZM0.51954 11.9725C0.51954 12.3607 0.526551 12.5194 0.535065 12.3254C0.543624 12.1313 0.543624 11.8137 0.535065 11.6197C0.526551 11.4257 0.51954 11.5844 0.51954 11.9725ZM14.8651 13.7799C14.2168 13.8661 13.4809 14.3848 13.1886 14.9616C12.2886 16.7375 13.8693 18.7193 15.7846 18.2164C16.8849 17.9276 17.6069 16.8364 17.4413 15.7127C17.2573 14.4639 16.1227 13.6127 14.8651 13.7799ZM15.0472 15.2946C14.73 15.367 14.5025 15.6058 14.4524 15.9189C14.3633 16.476 14.9456 16.9467 15.4587 16.7324C15.7963 16.5913 15.9447 16.3715 15.9419 16.0166C15.9382 15.5411 15.5038 15.1905 15.0472 15.2946Z" fill="black"/>
</svg>
