<svg width="24" height="24" viewBox="0 0 24 24" fill="none" xmlns="http://www.w3.org/2000/svg">
<path fill-rule="evenodd" clip-rule="evenodd" d="M11.0712 0.364864C8.81995 0.582302 6.56139 1.50855 4.80503 2.93469C4.2532 3.38272 3.28538 4.38318 2.87895 4.92564C2.20237 5.82862 1.58825 6.95287 1.20915 7.98255C0.414514 10.1406 0.298055 12.6165 0.883992 14.8929C1.10029 15.7331 1.30466 16.275 1.73385 17.1459C2.3527 18.4018 3.0185 19.3123 4.06039 20.3276C5.01578 21.2586 5.82885 21.8311 7.03587 22.4226C7.85323 22.8232 8.38517 23.0232 9.2124 23.2408C12.6519 24.1456 16.3045 23.4173 19.2104 21.2472C19.7722 20.8277 21.0128 19.5872 21.4323 19.0254C22.1174 18.108 22.7453 16.9504 23.1216 15.9108C23.4338 15.0482 23.6941 13.8687 23.7525 13.0524C23.7682 12.8324 23.7984 12.6417 23.8196 12.6286C23.8409 12.6154 23.8582 12.2974 23.8582 11.9218C23.8582 11.5462 23.8407 11.2497 23.8194 11.2629C23.7981 11.2761 23.7679 11.1083 23.7522 10.89C23.6872 9.9791 23.391 8.71327 23.0223 7.7704C22.7444 7.05954 22.3834 6.3556 22.2381 6.24132C21.7633 5.86787 21.0817 6.18956 21.0812 6.78733C21.0811 6.94654 21.14 7.12159 21.3265 7.51577C22.6327 10.2777 22.6952 13.2674 21.5044 16.022C20.0912 19.2907 17.0966 21.5549 13.5235 22.0561C12.9243 22.1402 11.5648 22.1533 10.9968 22.0805C8.59751 21.773 6.55324 20.768 4.91384 19.0902C4.35691 18.5201 4.071 18.1695 3.67668 17.5725C2.91524 16.4199 2.38935 15.1015 2.13709 13.7127C1.99823 12.9481 1.96677 11.5222 2.07075 10.7052C2.31332 8.79936 3.07723 7.01219 4.28598 5.52259C4.69472 5.01888 5.43377 4.30169 5.95437 3.90346C7.36786 2.82233 8.93714 2.15991 10.7464 1.88074C11.463 1.77015 12.8909 1.77088 13.6129 1.88224C15.1584 2.12057 16.5438 2.65374 17.8427 3.51001C18.3852 3.86768 18.539 3.91316 18.8302 3.80193C19.2989 3.62292 19.4514 3.05661 19.1329 2.67755C18.8181 2.30282 17.132 1.37338 16.1152 1.01413C15.4034 0.762589 14.591 0.558036 13.874 0.449772C13.1802 0.345014 11.7314 0.301126 11.0712 0.364864ZM19.9567 4.09449C19.6885 4.25803 19.548 4.58751 19.6248 4.87278C19.6863 5.10105 19.9494 5.4334 20.1403 5.524C20.7064 5.79261 21.3247 5.30378 21.1667 4.71257C21.1089 4.49586 20.8545 4.16847 20.6699 4.073C20.4835 3.97662 20.1327 3.98719 19.9567 4.09449ZM8.78822 6.56634C8.57661 6.71034 8.46739 6.87406 8.4383 7.09072C8.40538 7.33621 8.54802 7.63163 8.7732 7.78419C8.94046 7.89756 8.94666 7.8981 10.2649 7.92237C11.6543 7.94795 11.7307 7.95888 12.1122 8.18724C12.2519 8.27083 12.704 8.70088 12.704 8.7501C12.704 8.76972 11.8688 8.78579 10.8481 8.78579C9.12822 8.78579 8.98048 8.79198 8.83348 8.8702C8.35466 9.12497 8.36395 9.87544 8.84918 10.1409C8.97894 10.2119 9.19779 10.2212 11.0135 10.2331L13.0334 10.2463L13.005 10.3924C12.9065 10.8986 12.4383 11.4564 11.8963 11.7131L11.5886 11.8589L10.2683 11.8816C8.99191 11.9036 8.94247 11.9079 8.78053 12.0086C8.54866 12.1527 8.40479 12.4569 8.44422 12.7197C8.48164 12.9693 8.50099 12.9914 10.8345 15.4487C12.797 17.5153 12.8574 17.5677 13.2027 17.5037C13.4538 17.4572 13.662 17.3047 13.7555 17.0988C13.8569 16.8756 13.8638 16.7097 13.7798 16.5126C13.7455 16.432 13.075 15.69 12.2897 14.8637L10.862 13.3613L11.2936 13.3304C11.531 13.3134 11.8401 13.2683 11.9806 13.2302C13.2873 12.8756 14.2732 11.7736 14.5007 10.4134C14.5284 10.2481 14.5354 10.2426 14.7207 10.2407C14.9489 10.2383 15.2241 10.1469 15.3523 10.0308C15.6944 9.72119 15.6463 9.15156 15.2557 8.88836C15.1283 8.8025 15.0422 8.78579 14.727 8.78579H14.3505L14.2715 8.57882C14.228 8.46496 14.1341 8.27989 14.0628 8.16749C13.9916 8.05508 13.9333 7.95565 13.9333 7.94654C13.9333 7.93739 14.1981 7.92273 14.5218 7.91395C15.0301 7.9002 15.1275 7.88522 15.2361 7.80413C15.7136 7.44747 15.6974 6.79484 15.2048 6.54367C15.0608 6.47019 14.8122 6.46404 11.9937 6.464L8.93874 6.46391L8.78822 6.56634ZM0.521003 11.9727C0.521003 12.3608 0.528014 12.5196 0.536527 12.3255C0.545087 12.1315 0.545087 11.8139 0.536527 11.6199C0.528014 11.4258 0.521003 11.5846 0.521003 11.9727Z" fill="black"/>
</svg>
