<svg width="23" height="22" viewBox="0 0 23 22" fill="none" xmlns="http://www.w3.org/2000/svg">
<path fill-rule="evenodd" clip-rule="evenodd" d="M12.7273 0.13857C11.9891 0.293682 11.2615 0.618975 10.7013 1.04429C10.5386 1.1679 8.22207 3.45742 5.55358 6.1322C0.335917 11.3621 0.539424 11.1403 0.339059 11.8149C0.210671 12.2472 0.229019 12.8648 0.383584 13.3138C0.451921 13.5121 0.575027 13.7747 0.657204 13.8973C0.863761 14.2055 7.9378 21.2825 8.22007 21.4634C9.1048 22.0303 10.1867 22.0222 11.0506 21.4422C11.3312 21.2538 20.584 12.0237 20.9622 11.5548C21.5007 10.8874 21.8721 10.0767 22.015 9.25701C22.1151 8.68355 22.1148 2.43966 22.0148 2.01534C21.7955 1.08522 21.0823 0.35956 20.1485 0.116307C19.9165 0.0558927 19.4066 0.046514 16.5079 0.0492457C13.3837 0.0522505 13.107 0.0587609 12.7273 0.13857ZM13.1022 1.80205C12.6969 1.87603 12.2966 2.03369 11.9329 2.26265C11.6132 2.46392 2.17531 11.8759 2.04802 12.1204C1.94831 12.3119 1.93456 12.6581 2.01902 12.8502C2.09864 13.0313 9.09943 20.0303 9.27712 20.1064C9.47007 20.189 9.75307 20.186 9.96295 20.099C10.0822 20.0495 11.5165 18.6459 14.813 15.3528C17.3875 12.7809 19.5869 10.5539 19.7007 10.4038C19.9692 10.0498 20.1453 9.69681 20.273 9.2562C20.3756 8.90208 20.3759 8.89225 20.3759 5.61574V2.3303L20.2387 2.13508C20.1632 2.02768 20.03 1.89784 19.9427 1.84657C19.7872 1.75525 19.7194 1.75315 16.6199 1.74546C14.06 1.73904 13.3882 1.74987 13.1022 1.80205ZM15.2344 3.66694C14.0797 3.98381 13.2545 5.1514 13.3558 6.32492C13.4083 6.93234 13.6787 7.52078 14.098 7.94014C15.0959 8.93805 16.6961 8.94046 17.69 7.9456C18.2171 7.41798 18.441 6.87202 18.441 6.11426C18.441 5.40581 18.2106 4.85921 17.6948 4.34334C17.3455 3.99401 16.9803 3.77907 16.5423 3.66498C16.2237 3.58199 15.5403 3.58303 15.2344 3.66694ZM15.5447 5.3688C15.2549 5.50042 15.1021 5.73429 15.0801 6.08007C15.065 6.31731 15.08 6.39917 15.1676 6.55488C15.3614 6.8997 15.7524 7.05568 16.1431 6.94395C16.7779 6.76243 16.9633 5.97627 16.4773 5.52682C16.2054 5.27533 15.8741 5.21919 15.5447 5.3688Z" fill="black"/>
</svg>
