<svg width="24" height="24" viewBox="0 0 24 24" fill="none" xmlns="http://www.w3.org/2000/svg">
<path fill-rule="evenodd" clip-rule="evenodd" d="M13.3624 0.378784C13.2873 0.41425 13.1643 0.508582 13.0892 0.588392L12.9526 0.733487L12.9406 5.70435C12.9315 9.45539 12.9417 10.7073 12.9824 10.8058C13.0121 10.8775 13.1179 10.9954 13.2176 11.0676L13.3988 11.1988H18.3477H23.2966L23.4471 11.0964C23.8068 10.8516 23.8601 10.606 23.7687 9.61496C23.5937 7.71688 22.9257 5.95475 21.8062 4.438C19.986 1.97179 17.1312 0.45791 14.0728 0.337035C13.6344 0.319689 13.4667 0.329569 13.3624 0.378784ZM14.3867 5.77459V9.74194H18.3541H22.3215L22.2927 9.46714C22.2426 8.98705 22.0817 8.27969 21.8957 7.72084C21.0279 5.11427 18.9159 3.02993 16.2934 2.19191C15.813 2.03839 15.0904 1.88073 14.6615 1.83593L14.3867 1.8072V5.77459ZM9.76571 3.32486C7.38673 3.5606 5.30604 4.51786 3.61615 6.15416C2.72505 7.01694 2.08876 7.88451 1.55358 8.96633C-0.18365 12.4781 0.269484 16.6855 2.71958 19.7921C3.09386 20.2667 3.79344 20.9665 4.30243 21.3757C5.84048 22.6119 7.7463 23.3876 9.71673 23.5794C11.9946 23.8011 14.3877 23.1993 16.2905 21.9265C18.4116 20.5077 19.9432 18.3413 20.5331 15.9255C20.7128 15.1895 20.813 14.4405 20.8218 13.768C20.8287 13.2319 20.8258 13.2146 20.7018 13.0516C20.6319 12.9597 20.5295 12.8586 20.4742 12.827C20.3958 12.7822 19.3846 12.7645 15.8891 12.7467L11.4047 12.724L11.3819 8.23148C11.3594 3.78291 11.3583 3.73775 11.2653 3.61327C11.0764 3.36032 10.9573 3.30719 10.5521 3.29531C10.345 3.28921 9.99107 3.30255 9.76571 3.32486ZM9.21939 4.86855C8.3372 5.02676 7.74412 5.21675 6.93309 5.60095C4.35515 6.82222 2.54225 9.23249 2.072 12.0638C1.68557 14.3906 2.34485 16.977 3.78606 18.7882L4.02085 19.0832L6.97293 16.1314L9.92506 13.1795V8.97949V4.77946L9.79986 4.78319C9.73102 4.78524 9.46979 4.82366 9.21939 4.86855ZM11.3819 18.1708V22.1379L11.6892 22.1069C12.5678 22.0183 13.5522 21.7272 14.4594 21.2878C16.7683 20.1694 18.4428 18.137 19.0959 15.6605C19.2028 15.2552 19.3486 14.4616 19.349 14.2833C19.3492 14.208 19.1292 14.2036 15.3656 14.2036H11.3819V18.1708ZM7.47464 17.6784L5.04731 20.1061L5.25286 20.2745C6.39278 21.2085 8.19133 21.9637 9.61775 22.1071L9.92506 22.1379V18.6943C9.92506 16.8004 9.91987 15.2507 9.9135 15.2507C9.90717 15.2507 8.80969 16.3432 7.47464 17.6784Z" fill="black"/>
</svg>
