<svg width="24" height="24" viewBox="0 0 24 24" fill="none" xmlns="http://www.w3.org/2000/svg">
<path fill-rule="evenodd" clip-rule="evenodd" d="M5.56491 0.393567C5.48246 0.434222 5.39027 0.510572 5.36004 0.563292C5.32476 0.6248 5.29694 0.976635 5.28232 1.54687L5.25956 2.43465L4.75876 2.46215C4.48332 2.47722 4.19631 2.51022 4.12097 2.53549C3.46323 2.75571 2.94003 3.27891 2.71982 3.93664C2.69455 4.01199 2.66154 4.29899 2.64647 4.57443L2.61897 5.07523L1.73119 5.098C1.1575 5.1127 0.809263 5.14034 0.74689 5.17608C0.643998 5.23508 0.501953 5.49345 0.501953 5.62156C0.501953 5.7785 0.64846 6.00285 0.796879 6.07333C0.917845 6.13074 1.11826 6.14513 1.79584 6.14513H2.64342L2.63118 7.20364L2.61897 8.26215L1.72359 8.27449L0.828248 8.28682L0.691392 8.41467C0.437031 8.65227 0.460205 9.0037 0.744159 9.21413C0.862257 9.30163 0.943523 9.31042 1.75714 9.32335L2.64174 9.33746V10.3784V11.4193L1.7632 11.4342C0.773615 11.4509 0.689844 11.4752 0.560729 11.7827C0.499859 11.9276 0.498812 11.9735 0.553126 12.1278C0.673045 12.4686 0.753401 12.4942 1.75714 12.511L2.64174 12.5259V13.5669V14.6078L1.75714 14.6219C0.943523 14.6348 0.862257 14.6436 0.744159 14.7311C0.460205 14.9416 0.437031 15.293 0.691392 15.5306L0.828248 15.6584L1.72359 15.6708L2.61897 15.6831L2.63118 16.7416L2.64342 17.8001H1.79584C1.11826 17.8001 0.917845 17.8145 0.796879 17.8719C0.64846 17.9424 0.501953 18.1668 0.501953 18.3237C0.501953 18.4518 0.643998 18.7102 0.74689 18.7692C0.809263 18.8049 1.1575 18.8326 1.73119 18.8473L2.61897 18.87L2.64647 19.3708C2.66154 19.6463 2.69455 19.9333 2.71982 20.0086C2.94003 20.6663 3.46323 21.1895 4.12097 21.4098C4.19631 21.435 4.48332 21.468 4.75876 21.4831L5.25956 21.5106L5.28232 22.3984C5.29703 22.9721 5.32466 23.3203 5.3604 23.3827C5.41941 23.4856 5.67777 23.6276 5.80589 23.6276C5.96282 23.6276 6.18718 23.4811 6.25766 23.3327C6.31507 23.2117 6.32945 23.0113 6.32945 22.3337V21.4862L7.38796 21.4984L8.44647 21.5106L8.45881 22.406L8.47115 23.3013L8.59899 23.4382C8.8366 23.6925 9.18802 23.6694 9.39845 23.3854C9.48596 23.2673 9.49474 23.1861 9.50767 22.3724L9.52178 21.4878H10.5627H11.6037L11.6185 22.3724C11.6354 23.3762 11.661 23.4565 12.0017 23.5765C12.1561 23.6308 12.2019 23.6297 12.3469 23.5689C12.6543 23.4397 12.6786 23.356 12.6954 22.3664L12.7102 21.4878H13.7512H14.7921L14.8062 22.3724C14.8192 23.1861 14.828 23.2673 14.9155 23.3854C15.1259 23.6694 15.4773 23.6925 15.7149 23.4382L15.8428 23.3013L15.8551 22.406L15.8674 21.5106L16.9259 21.4984L17.9845 21.4862V22.3337C17.9845 23.0113 17.9988 23.2117 18.0562 23.3327C18.1267 23.4811 18.3511 23.6276 18.508 23.6276C18.6361 23.6276 18.8945 23.4856 18.9535 23.3827C18.9892 23.3203 19.0169 22.9721 19.0316 22.3984L19.0543 21.5106L19.5551 21.4831C19.8306 21.468 20.1176 21.435 20.1929 21.4098C20.8507 21.1895 21.3739 20.6663 21.5941 20.0086C21.6194 19.9333 21.6524 19.6463 21.6674 19.3708L21.6949 18.87L22.5827 18.8473C23.1319 18.8332 23.5055 18.8043 23.5623 18.7717C23.67 18.7097 23.8575 18.3773 23.8575 18.2484C23.8575 18.1992 23.8413 18.1689 23.8216 18.1811C23.8019 18.1933 23.7601 18.1452 23.7286 18.0743C23.6238 17.8374 23.4592 17.8001 22.5181 17.8001H21.6705L21.6827 16.7416L21.6949 15.6831L22.5745 15.6707C23.5664 15.6568 23.6159 15.6425 23.7686 15.3264C23.8527 15.1523 23.8923 14.9274 23.8274 14.9923C23.8109 15.0089 23.775 14.9784 23.7477 14.9246C23.7204 14.8709 23.6404 14.7839 23.5697 14.7314C23.4515 14.6435 23.3714 14.6349 22.5568 14.6219L21.6722 14.6078V13.5669V12.5259L22.5507 12.511C23.5476 12.4942 23.6057 12.4767 23.7656 12.1457C23.8543 11.9622 23.8903 11.7881 23.8264 11.852C23.8093 11.8691 23.7699 11.8228 23.739 11.7492C23.6251 11.4782 23.5208 11.4506 22.5507 11.4342L21.6722 11.4193V10.3784V9.33746L22.5568 9.32335C23.3695 9.31042 23.4516 9.30158 23.5681 9.21458C23.6378 9.16245 23.7299 9.06001 23.7728 8.98694C23.8552 8.84645 23.8857 8.62632 23.8168 8.66889C23.7944 8.68273 23.7636 8.64431 23.7484 8.58353C23.7331 8.52279 23.6618 8.43119 23.59 8.37997C23.4708 8.29516 23.3813 8.28582 22.5771 8.27453L21.6949 8.26215L21.6827 7.20364L21.6705 6.14513H22.5181C23.4946 6.14513 23.6003 6.11745 23.7588 5.82056C23.8552 5.63986 23.8929 5.4349 23.8216 5.47902C23.8019 5.49122 23.7591 5.44096 23.7265 5.36729C23.6272 5.14284 23.541 5.12258 22.5827 5.098L21.6949 5.07523L21.6674 4.57443C21.6524 4.29899 21.6194 4.01199 21.5941 3.93664C21.3739 3.27891 20.8507 2.75571 20.1929 2.53549C20.1176 2.51022 19.8306 2.47722 19.5551 2.46215L19.0543 2.43465L19.0316 1.54687C19.0169 0.973175 18.9892 0.624937 18.9535 0.562564C18.8945 0.459672 18.6361 0.317627 18.508 0.317627C18.3511 0.317627 18.1267 0.464134 18.0562 0.612553C17.9988 0.733519 17.9845 0.933931 17.9845 1.61151V2.4591L16.9259 2.44685L15.8674 2.43465L15.8551 1.53926L15.8428 0.643921L15.7149 0.507066C15.4773 0.252705 15.1259 0.275878 14.9155 0.559832C14.828 0.67793 14.8192 0.759197 14.8062 1.57282L14.7921 2.45741H13.7512H12.7102L12.6954 1.57282C12.6785 0.569074 12.6529 0.488719 12.3122 0.3688C12.1578 0.314486 12.112 0.315533 11.967 0.376403C11.6596 0.505518 11.6353 0.589289 11.6185 1.57887L11.6037 2.45741H10.5627H9.52178L9.50767 1.57282C9.49474 0.759197 9.48596 0.67793 9.39845 0.559832C9.18802 0.275878 8.8366 0.252705 8.59899 0.507066L8.47115 0.643921L8.45881 1.53926L8.44647 2.43465L7.38796 2.44685L6.32945 2.4591V1.61151C6.32945 0.653619 6.29558 0.513349 6.03453 0.389424C5.84509 0.299553 5.75408 0.300372 5.56491 0.393567ZM4.37847 3.55644C4.16199 3.61913 3.79777 3.99765 3.73708 4.22305C3.70243 4.35162 3.69137 6.68458 3.69975 12.0779L3.71163 19.75L3.84949 19.9461C3.92529 20.054 4.07562 20.2043 4.18348 20.2801L4.37961 20.4179H12.157H19.9343L20.1304 20.2801C20.2383 20.2043 20.3886 20.054 20.4644 19.9461L20.6023 19.75V11.9726V4.19528L20.4644 3.99915C20.3886 3.8913 20.2383 3.74096 20.1304 3.66516L19.9343 3.5273L12.2327 3.51975C7.36388 3.51501 4.47499 3.52849 4.37847 3.55644ZM5.11788 4.58267C5.06498 4.59324 4.96254 4.66362 4.89024 4.73911L4.75876 4.87633V11.9747V19.0732L4.90759 19.222L5.05642 19.3708H12.157H19.2575L19.4063 19.222L19.5551 19.0732V11.9726V4.87209L19.4063 4.72326L19.2575 4.57443L12.2358 4.56897C8.37381 4.56597 5.17074 4.57216 5.11788 4.58267ZM0.510831 5.62156C0.511742 5.69668 0.52194 5.7219 0.533504 5.67761C0.545068 5.63331 0.544294 5.57185 0.531819 5.54102C0.519345 5.5102 0.50992 5.54644 0.510831 5.62156ZM5.8042 5.65557C5.79228 5.68694 5.78777 8.55011 5.79419 12.0182L5.80589 18.3237H12.157H18.508V11.9726V5.62156L12.167 5.61004C7.11808 5.60085 5.8215 5.61009 5.8042 5.65557ZM0.510831 8.80848C0.511742 8.8836 0.52194 8.90882 0.533504 8.86452C0.545068 8.82022 0.544294 8.75876 0.531819 8.72794C0.519345 8.69712 0.50992 8.73336 0.510831 8.80848ZM0.509146 11.9726C0.509146 12.0352 0.519481 12.0609 0.532092 12.0295C0.544749 11.9983 0.544749 11.947 0.532092 11.9157C0.519481 11.8844 0.509146 11.91 0.509146 11.9726ZM0.510831 15.1368C0.511742 15.2119 0.52194 15.2371 0.533504 15.1928C0.545068 15.1485 0.544294 15.0871 0.531819 15.0562C0.519345 15.0254 0.50992 15.0617 0.510831 15.1368ZM0.510831 18.3237C0.511742 18.3988 0.52194 18.424 0.533504 18.3797C0.545068 18.3354 0.544294 18.274 0.531819 18.2432C0.519345 18.2123 0.50992 18.2486 0.510831 18.3237Z" fill="black"/>
</svg>
